<svg xmlns="http://www.w3.org/2000/svg" viewBox="0 0 537.33 321.33"><defs><style>.cls-1{opacity:0.32;}.cls-2{fill:#231f20;}</style></defs><g id="Layer_2" data-name="Layer 2"><g id="Layer_5" data-name="Layer 5"><g class="cls-1"><path class="cls-2" d="M468.86,237.22a249.46,249.46,0,0,1-56.47,34.62c-42.72,19.29-92.47,29.49-143.89,29.49s-101.17-10.2-143.89-29.49a249.89,249.89,0,0,1-56.48-34.62c-5.42,5.32-10.25,10.27-14.1,14.29,17.73,14.87,38.68,27.87,62.35,38.56,45.28,20.45,97.89,31.26,152.12,31.26s106.84-10.81,152.12-31.26c23.67-10.69,44.62-23.68,62.34-38.57C479.1,247.47,474.27,242.52,468.86,237.22ZM525,173.61l-.12-.22-.2-.35-.17-.28-2-3.17-.06-.1c-21.84-33.93-57-62.55-101.81-82.76C375.34,66.28,322.73,55.47,268.5,55.47S161.66,66.28,116.38,86.73c-46.33,20.92-82.27,50.7-103.92,86.13l-.12.19-.2.36a1.28,1.28,0,0,0-.11.2,30.17,30.17,0,0,0,0,29.58c.14.25.29.5.44.75A180.46,180.46,0,0,0,27,224.29c3.95-4.1,8.76-9,14.15-14.31a157.42,157.42,0,0,1-11.56-16.42,10.39,10.39,0,0,1-.05-10.23l.08-.14c19.56-31.94,52.42-59,95-78.24S217.08,75.47,268.5,75.47,369.67,85.67,412.39,105c41.22,18.62,73.44,44.66,93.19,75.32l1.87,3,.05.09a10.37,10.37,0,0,1,0,10.18A156.59,156.59,0,0,1,495.88,210c5.39,5.29,10.21,10.22,14.15,14.32A181,181,0,0,0,524.51,204c.18-.28.34-.57.5-.86A30.16,30.16,0,0,0,525,173.61Z"/></g><path class="cls-2" d="M514.79,257.81a12.2,12.2,0,0,1-17.21-.91c-.07-.09-3.62-4-9.32-10-3.84-4-8.65-8.94-14.06-14.26-4.14-4.07-8.62-8.37-13.27-12.65-35.47-32.62-47.94-34.27-50.08-34.27-4.52,0-13.44,11.54-19.52,43.34-3.52,18.46-19.24,31.86-37.38,31.86a31.6,31.6,0,0,1-31.57-31.57v-68c0-3.69,0-7.08.08-10.06,0-3.51.09-7.28,0-10.25-4.68,1.67-8.73,5.69-14.42,11.63-8.91,9.29-20,20.86-39.38,20.86h-.36c-19.37,0-30.47-11.57-39.38-20.86-5.69-5.94-9.74-10-14.42-11.63-.07,3,0,6.74,0,10.25,0,3,.08,6.37.08,10.06v68a31.6,31.6,0,0,1-31.57,31.57c-18.14,0-33.86-13.4-37.38-31.86-6.08-31.8-15-43.34-19.52-43.34-2.14,0-14.64,1.65-50.2,34.38-4.62,4.25-9.06,8.51-13.16,12.54-5.41,5.33-10.22,10.26-14,14.27-5.71,6-9.25,9.89-9.32,10A12.19,12.19,0,1,1,21.3,240.6c.33-.36,4.15-4.61,10.22-10.95,3.89-4.06,8.7-9,14.1-14.28,4.29-4.23,9-8.7,13.83-13.19,39.76-36.59,57.11-40.82,66.7-40.82,9,0,21.87,4.37,31.91,25.19,4.72,9.78,8.6,22.55,11.54,37.95,1.31,6.88,7.1,12.07,13.45,12.07a7.23,7.23,0,0,0,7.21-7.21v-68c0-3.54,0-6.84-.08-9.75-.2-15-.31-24.08,6.14-30.62a17.78,17.78,0,0,1,13.05-5.18c18,0,28.61,11.09,37.16,20,8.18,8.54,13.23,13.37,21.79,13.37h.36c8.56,0,13.61-4.83,21.79-13.37,8.55-8.91,19.18-20,37.16-20A17.78,17.78,0,0,1,340.68,121c6.45,6.54,6.34,15.6,6.14,30.62,0,2.91-.08,6.21-.08,9.75v68a7.23,7.23,0,0,0,7.21,7.21c6.35,0,12.14-5.19,13.45-12.07,2.94-15.4,6.82-28.17,11.54-37.95,10-20.82,22.89-25.19,31.91-25.19,9.59,0,26.94,4.23,66.7,40.82,4.88,4.49,9.55,9,13.84,13.19,5.39,5.31,10.19,10.22,14.08,14.27,6.08,6.35,9.9,10.6,10.23,11A12.19,12.19,0,0,1,514.79,257.81Z"/><path d="M18.25,90,8.48,96.84l2.07,7.63-3.17,2.21L0,77.15l2.69-1.88,25.2,17.09-3.16,2.2ZM7.65,93.67l7.93-5.53L4,80Z"/><path d="M38,79.86a2.67,2.67,0,0,0-2.11-1.39,10.84,10.84,0,0,0-4,.78,17.93,17.93,0,0,1-4.46,1,6.29,6.29,0,0,1-3.05-.45,4.69,4.69,0,0,1-2.05-1.91,5.49,5.49,0,0,1-.37-4.9,8.55,8.55,0,0,1,3.89-4.43,8.8,8.8,0,0,1,6-1.41,5.88,5.88,0,0,1,4.36,2.92L33,72a3.26,3.26,0,0,0-2.4-1.55,4.78,4.78,0,0,0-3.28.71,5,5,0,0,0-2.2,2.33,2.73,2.73,0,0,0,.2,2.5,2.2,2.2,0,0,0,1.9,1.16,13,13,0,0,0,3.86-.84,19.91,19.91,0,0,1,4.51-1,6.41,6.41,0,0,1,3.17.46,4.91,4.91,0,0,1,2.18,2,5.41,5.41,0,0,1,.39,5.06,9.45,9.45,0,0,1-4.16,4.49,10.71,10.71,0,0,1-4.31,1.54A7.27,7.27,0,0,1,29,88.29a6,6,0,0,1-2.74-2.42L29.33,84a3.75,3.75,0,0,0,2.73,1.72,5.71,5.71,0,0,0,3.63-.93,5.83,5.83,0,0,0,2.39-2.4A2.55,2.55,0,0,0,38,79.86Z"/><path d="M56,70a2.67,2.67,0,0,0-2-1.5,10.63,10.63,0,0,0-4.06.55,17.67,17.67,0,0,1-4.51.78,6.17,6.17,0,0,1-3-.62,4.64,4.64,0,0,1-1.93-2,5.46,5.46,0,0,1-.1-4.91,8.61,8.61,0,0,1,4.13-4.2,8.88,8.88,0,0,1,6-1.07,5.92,5.92,0,0,1,4.19,3.16l-3.22,1.69a3.3,3.3,0,0,0-2.31-1.68,4.73,4.73,0,0,0-3.3.53,4.93,4.93,0,0,0-2.34,2.19,2.71,2.71,0,0,0,.06,2.51,2.23,2.23,0,0,0,1.84,1.27,12.9,12.9,0,0,0,3.9-.62,19.78,19.78,0,0,1,4.55-.76,6.56,6.56,0,0,1,3.15.63,5,5,0,0,1,2,2.18,5.39,5.39,0,0,1,.11,5.07,9.54,9.54,0,0,1-4.41,4.25,10.81,10.81,0,0,1-4.4,1.29,7.33,7.33,0,0,1-3.87-.8A6.09,6.09,0,0,1,44,75.37l3.2-1.68a3.75,3.75,0,0,0,2.63,1.87,5.64,5.64,0,0,0,3.67-.72A5.84,5.84,0,0,0,56,72.57,2.54,2.54,0,0,0,56,70Z"/><path d="M60.41,62a12.51,12.51,0,0,1-1.22-5.58,9,9,0,0,1,5.46-8.19,8.9,8.9,0,0,1,7.59-.19A11.44,11.44,0,0,1,78,54.18l.11.23a12.48,12.48,0,0,1,1.23,5.53,9,9,0,0,1-1.49,4.88,9.37,9.37,0,0,1-4,3.34,8.89,8.89,0,0,1-7.57.18,11.43,11.43,0,0,1-5.72-6.09Zm3.48-1.12a9,9,0,0,0,3.83,4.46,5.53,5.53,0,0,0,7.94-3.67,10,10,0,0,0-1-6.17,9.07,9.07,0,0,0-3.85-4.43A5.23,5.23,0,0,0,65.89,51a5.15,5.15,0,0,0-3,3.73A9.76,9.76,0,0,0,63.89,60.9Z"/><path d="M93.21,56.76a5.17,5.17,0,0,0,2.71-2.32,4.11,4.11,0,0,0,.42-3.32l3.19-1.24a6.51,6.51,0,0,1,.09,3.67,8.19,8.19,0,0,1-1.9,3.56,8.9,8.9,0,0,1-3.44,2.4,8.69,8.69,0,0,1-7.44-.18c-2.28-1.16-4-3.3-5.25-6.4l-.22-.56a12.75,12.75,0,0,1-1-5.53,8.59,8.59,0,0,1,1.66-4.66,9.16,9.16,0,0,1,4.18-3.06,8.45,8.45,0,0,1,6.28-.18,7.62,7.62,0,0,1,4.35,4.23l-3.18,1.25A5,5,0,0,0,91,41.85a4.82,4.82,0,0,0-3.69,0,5.07,5.07,0,0,0-3.25,3.4,9.38,9.38,0,0,0,.69,5.89l.25.64a9.1,9.1,0,0,0,3.46,4.69A5.1,5.1,0,0,0,93.21,56.76Z"/><path d="M96.73,29.63a2.2,2.2,0,0,1,0-1.58,2.41,2.41,0,0,1,3-1.06,2.15,2.15,0,0,1,1,1.22,2.08,2.08,0,0,1,0,1.57,2.1,2.1,0,0,1-1.32,1.08,2.08,2.08,0,0,1-1.7,0A2,2,0,0,1,96.73,29.63Zm12.56,23.93-3.41,1.2-7-19.94,3.41-1.2Z"/><path d="M127,47.82a7.29,7.29,0,0,1-1.15-2,8.11,8.11,0,0,1-5,4.3,7.47,7.47,0,0,1-5.43-.16,5.72,5.72,0,0,1-3.24-3.68,6,6,0,0,1,.86-5.64,11.84,11.84,0,0,1,6.2-3.85l3.35-1.05-.49-1.59a4.09,4.09,0,0,0-2-2.54,4.57,4.57,0,0,0-3.53-.07,5.2,5.2,0,0,0-2.8,1.9,2.85,2.85,0,0,0-.54,2.64l-3.47,1.08a5,5,0,0,1,.16-3.25,7.67,7.67,0,0,1,2.21-3.13,10.23,10.23,0,0,1,3.78-2.09,8.4,8.4,0,0,1,6,0,6.6,6.6,0,0,1,3.55,4.16l2.9,9.28a11.88,11.88,0,0,0,2.09,4.2l.09.3ZM120.41,47a6.36,6.36,0,0,0,2.81-1.8,5.32,5.32,0,0,0,1.43-2.84l-1.29-4.14-2.71.84c-4.22,1.33-6,3.22-5.18,5.7a3.29,3.29,0,0,0,1.88,2.19A4.33,4.33,0,0,0,120.41,47Z"/><path d="M142.58,40.81a5.19,5.19,0,0,0,3-2,4.13,4.13,0,0,0,.81-3.24l3.3-.87a6.45,6.45,0,0,1-.33,3.66A8.21,8.21,0,0,1,147,41.68a8.84,8.84,0,0,1-3.69,2,8.72,8.72,0,0,1-7.37-1,11.53,11.53,0,0,1-4.47-7l-.15-.59a12.79,12.79,0,0,1-.3-5.59,8.73,8.73,0,0,1,2.2-4.44,9.29,9.29,0,0,1,4.51-2.55A8.52,8.52,0,0,1,144,23a7.62,7.62,0,0,1,3.83,4.71l-3.31.87a5,5,0,0,0-2.36-2.87,4.83,4.83,0,0,0-3.67-.4,5.08,5.08,0,0,0-3.62,3,9.28,9.28,0,0,0,0,5.93l.17.66A9.15,9.15,0,0,0,137.92,40,5.09,5.09,0,0,0,142.58,40.81Zm1.26,2.5,0,1a3.16,3.16,0,0,1,3.75,2.51,3.47,3.47,0,0,1-.75,3.29,7.47,7.47,0,0,1-3.94,2.18l-.66-2a4.67,4.67,0,0,0,2.19-1.1,1.59,1.59,0,0,0,.46-1.59,1.42,1.42,0,0,0-.93-1.07,6.2,6.2,0,0,0-2.6.07L141.33,44Z"/><path d="M164,8.32a4.84,4.84,0,0,1-.45,3.6,3.94,3.94,0,0,1-2.66,1.91,4.6,4.6,0,0,1-1.39.1,7.4,7.4,0,0,1-1.67-.47,6.36,6.36,0,0,0-1.49-.42,3,3,0,0,0-1,.08,1.76,1.76,0,0,0-1.21.88,2.23,2.23,0,0,0-.23,1.66l-2.39.38a5.1,5.1,0,0,1,.43-3.63,3.78,3.78,0,0,1,2.64-2,3.55,3.55,0,0,1,1.24-.07,8.78,8.78,0,0,1,1.62.44,8.89,8.89,0,0,0,1.56.42,3.53,3.53,0,0,0,1.11-.06,1.75,1.75,0,0,0,1.23-.94,2.36,2.36,0,0,0,.22-1.63Zm3.73,29.25a7.8,7.8,0,0,1-1-2.07,8.06,8.06,0,0,1-5.33,3.82,7.47,7.47,0,0,1-5.39-.65,5.72,5.72,0,0,1-2.9-4,6,6,0,0,1,1.38-5.54c1.38-1.55,3.55-2.63,6.52-3.27l3.44-.74-.35-1.62a4.11,4.11,0,0,0-1.74-2.72,4.59,4.59,0,0,0-3.51-.39,5.26,5.26,0,0,0-3,1.63,2.86,2.86,0,0,0-.78,2.59l-3.56.76a5,5,0,0,1,.46-3.22,7.73,7.73,0,0,1,2.49-2.92,10.18,10.18,0,0,1,4-1.73,8.37,8.37,0,0,1,6,.58,6.58,6.58,0,0,1,3.16,4.47l2,9.51a12,12,0,0,0,1.7,4.36l.07.31Zm-6.44-1.44a6.32,6.32,0,0,0,3-1.53A5.27,5.27,0,0,0,166,31.9l-.91-4.24-2.76.6q-6.49,1.39-5.68,5.19a3.3,3.3,0,0,0,1.66,2.36A4.39,4.39,0,0,0,161.32,36.13Z"/><path d="M173.27,25.45a12.5,12.5,0,0,1,.28-5.71,9.18,9.18,0,0,1,2.71-4.34,9.37,9.37,0,0,1,4.68-2.15A8.93,8.93,0,0,1,188.32,15a11.49,11.49,0,0,1,4,7.4l0,.25a12.56,12.56,0,0,1-.25,5.66,8.87,8.87,0,0,1-2.7,4.32,9.38,9.38,0,0,1-4.75,2.19,8.91,8.91,0,0,1-7.36-1.8,11.43,11.43,0,0,1-3.94-7.36Zm3.65-.18a9,9,0,0,0,2.55,5.3,5.52,5.52,0,0,0,8.61-1.47,9.87,9.87,0,0,0,.6-6.23,9.1,9.1,0,0,0-2.56-5.29,5.28,5.28,0,0,0-4.68-1.4A5.22,5.22,0,0,0,177.53,19,9.82,9.82,0,0,0,176.92,25.27Z"/><path d="M210.64,2.11,222,24.38,229.16.44,234,0l2.55,28.32-3.74.34-1-11-.72-11.94-7.23,23.78-2.86.25-11.34-22,1.43,11.82,1,11-3.74.33L205.82,2.54Z"/><path d="M240.92,17.4a12.43,12.43,0,0,1,1-5.62,9,9,0,0,1,3.26-3.94,9.2,9.2,0,0,1,4.92-1.52,8.93,8.93,0,0,1,7.09,2.75,11.48,11.48,0,0,1,2.93,7.85v.25a12.63,12.63,0,0,1-1,5.58,9,9,0,0,1-3.25,3.93,9.41,9.41,0,0,1-5,1.54,8.89,8.89,0,0,1-7.06-2.75,11.45,11.45,0,0,1-2.93-7.81Zm3.64.31a9,9,0,0,0,1.83,5.58,5.52,5.52,0,0,0,8.73-.33,9.85,9.85,0,0,0,1.41-6.09,9,9,0,0,0-1.84-5.58,5.21,5.21,0,0,0-4.45-2A5.15,5.15,0,0,0,246,11.56,9.8,9.8,0,0,0,244.56,17.71Z"/><path d="M275.05,9.66a10.86,10.86,0,0,0-1.77-.14,4.76,4.76,0,0,0-4.84,3l-.06,15-3.61,0,.08-21.13h3.52l.05,2.44A5.62,5.62,0,0,1,273.47,6a3.89,3.89,0,0,1,1.6.28Z"/><path d="M286.31,25.27a5.22,5.22,0,0,0,3.42-1.05,4.14,4.14,0,0,0,1.69-2.88l3.42.11a6.64,6.64,0,0,1-1.36,3.42,8.38,8.38,0,0,1-3.16,2.51,8.87,8.87,0,0,1-4.11.84,8.69,8.69,0,0,1-6.76-3.1,11.46,11.46,0,0,1-2.29-8l0-.61a12.91,12.91,0,0,1,1.31-5.45,8.64,8.64,0,0,1,3.38-3.62,9.24,9.24,0,0,1,5.05-1.16,8.47,8.47,0,0,1,5.83,2.32,7.62,7.62,0,0,1,2.33,5.61l-3.42-.11a5,5,0,0,0-1.44-3.42,4.79,4.79,0,0,0-3.4-1.43,5,5,0,0,0-4.33,1.84,9.31,9.31,0,0,0-1.7,5.68l0,.68a9.12,9.12,0,0,0,1.32,5.67A5.07,5.07,0,0,0,286.31,25.27Z"/><path d="M307.1,29.37A9.24,9.24,0,0,1,300.33,26a10.5,10.5,0,0,1-2.13-7.73l.05-.66a12.6,12.6,0,0,1,1.61-5.51,9.39,9.39,0,0,1,3.63-3.61,8.53,8.53,0,0,1,4.77-1,7.91,7.91,0,0,1,6.19,3.18q2.08,2.88,1.71,7.92l-.11,1.5-14.28-1a7.52,7.52,0,0,0,1.45,5.17,5.75,5.75,0,0,0,4.29,2.24,6.18,6.18,0,0,0,3.29-.54A8,8,0,0,0,313.27,24l2.08,1.87A8.88,8.88,0,0,1,307.1,29.37ZM308,10.44a4.81,4.81,0,0,0-3.78,1.32,7.73,7.73,0,0,0-2.15,4.32l10.55.77,0-.27a6.86,6.86,0,0,0-1.16-4.36A4.52,4.52,0,0,0,308,10.44Z"/><path d="M319.63,19.2a12.38,12.38,0,0,1,3.18-7.54,7.88,7.88,0,0,1,12,1.21l.45-2.31,3.27.39-2.38,20.48A8.62,8.62,0,0,1,333,37.57a8.93,8.93,0,0,1-6.76,1.59,10.71,10.71,0,0,1-4.33-1.49,7.7,7.7,0,0,1-3-3L321,32.69a7,7,0,0,0,5.31,3.51,5.54,5.54,0,0,0,4.25-1,5.66,5.66,0,0,0,2-4l.21-1.8a7.41,7.41,0,0,1-6.16,1.8A7.21,7.21,0,0,1,321,27.55C319.68,25.4,319.23,22.61,319.63,19.2Zm3.56.83a9.44,9.44,0,0,0,.81,5.74,4.76,4.76,0,0,0,3.83,2.51,5.29,5.29,0,0,0,5.35-2.51l1.12-9.58a5.35,5.35,0,0,0-4.6-3.58,4.76,4.76,0,0,0-4.33,1.56A10.29,10.29,0,0,0,323.19,20Z"/><path d="M342,21.87a12.4,12.4,0,0,1,2.1-5.32,9.1,9.1,0,0,1,4-3.24,9.27,9.27,0,0,1,5.12-.53,8.9,8.9,0,0,1,6.41,4.07A11.47,11.47,0,0,1,361,25.12l0,.25a12.62,12.62,0,0,1-2.05,5.28,9.08,9.08,0,0,1-3.95,3.23,9.43,9.43,0,0,1-5.2.54,8.92,8.92,0,0,1-6.4-4.07A11.44,11.44,0,0,1,342,22.12Zm3.52,1a9,9,0,0,0,.7,5.83,5.54,5.54,0,0,0,8.64,1.38,9.91,9.91,0,0,0,2.56-5.71,9.08,9.08,0,0,0-.72-5.83,5.27,5.27,0,0,0-4-2.83,5.16,5.16,0,0,0-4.6,1.41A9.81,9.81,0,0,0,345.52,22.87Z"/><path d="M376.6,33.39a2.66,2.66,0,0,0-.62-2.45,10.68,10.68,0,0,0-3.48-2.15,18.22,18.22,0,0,1-4-2.26,6.15,6.15,0,0,1-1.94-2.4,4.59,4.59,0,0,1-.2-2.79,5.47,5.47,0,0,1,3-3.86,8.62,8.62,0,0,1,5.86-.62,8.84,8.84,0,0,1,5.34,3,5.91,5.91,0,0,1,1.22,5.1l-3.56-.74a3.25,3.25,0,0,0-.71-2.76,4.74,4.74,0,0,0-2.89-1.7,4.94,4.94,0,0,0-3.2.21,2.69,2.69,0,0,0-1.54,2,2.18,2.18,0,0,0,.61,2.14,12.73,12.73,0,0,0,3.4,2,19,19,0,0,1,4,2.31,6.42,6.42,0,0,1,2,2.49,4.94,4.94,0,0,1,.21,3,5.44,5.44,0,0,1-3.15,4,9.55,9.55,0,0,1-6.1.47,10.53,10.53,0,0,1-4.21-1.79,7.34,7.34,0,0,1-2.49-3.08,6.1,6.1,0,0,1-.37-3.64l3.54.74a3.73,3.73,0,0,0,.84,3.11,5.69,5.69,0,0,0,3.29,1.78,5.83,5.83,0,0,0,3.39-.15A2.55,2.55,0,0,0,376.6,33.39Z"/><path d="M401.11,45.67a9.27,9.27,0,0,1-6-4.59,10.46,10.46,0,0,1-.58-8l.17-.64a12.68,12.68,0,0,1,2.66-5.09,9.26,9.26,0,0,1,4.27-2.83,8.37,8.37,0,0,1,4.88-.1A7.91,7.91,0,0,1,412,28.75q1.48,3.22.13,8.1l-.4,1.45-13.8-3.81a7.54,7.54,0,0,0,.42,5.35,5.74,5.74,0,0,0,3.77,3,6.34,6.34,0,0,0,3.33.11,8.27,8.27,0,0,0,2.79-1.38l1.67,2.25A8.88,8.88,0,0,1,401.11,45.67Zm4.62-18.38a4.82,4.82,0,0,0-4,.55,7.72,7.72,0,0,0-2.95,3.82L409,34.48l.07-.27a6.91,6.91,0,0,0-.29-4.51A4.57,4.57,0,0,0,405.73,27.29Z"/><path d="M422.93,29.56l-.67,2.25a7.79,7.79,0,0,1,6.82-.54c2.79,1,4.33,2.69,4.6,5.18A7.9,7.9,0,0,1,437.07,35a8.08,8.08,0,0,1,4.09.41q6.57,2.26,4.28,9.27l-4.61,13.38-3.42-1.17L442,43.72a4.81,4.81,0,0,0,.13-3.54A4.56,4.56,0,0,0,439.16,38a4.77,4.77,0,0,0-3.55,0,4.84,4.84,0,0,0-2.51,2.56l-4.57,13.25-3.44-1.18,4.52-13.09q1.5-4.37-2.77-5.83A4.82,4.82,0,0,0,421.26,35l-5,14.58-3.42-1.17,6.89-20Z"/><path d="M472.28,63.7l-10.83-5-5.53,5.65-3.52-1.61,21.7-21.34,3,1.36L475.15,73.2l-3.49-1.6Zm-8.53-7.27,8.79,4,1.13-14.11Z"/><path d="M485.59,79l-.69.79A3.15,3.15,0,0,1,486,84.19a3.48,3.48,0,0,1-2.79,1.91A7.5,7.5,0,0,1,478.8,85l.86-1.91a4.66,4.66,0,0,0,2.35.68,1.58,1.58,0,0,0,1.42-.86,1.4,1.4,0,0,0,.05-1.41,6.25,6.25,0,0,0-2-1.71l1.79-2Zm.77-2.69a5.21,5.21,0,0,0,3.53.56,4.14,4.14,0,0,0,2.79-1.83l3,1.6A6.63,6.63,0,0,1,493,79.12a8.27,8.27,0,0,1-4,.86,8.9,8.9,0,0,1-4-1,8.7,8.7,0,0,1-4.7-5.78c-.6-2.49-.11-5.21,1.45-8.15l.29-.53a12.62,12.62,0,0,1,3.58-4.31,8.65,8.65,0,0,1,4.63-1.77,9.26,9.26,0,0,1,5,1.19,8.44,8.44,0,0,1,4.21,4.66,7.59,7.59,0,0,1-.38,6.05l-3-1.6a5,5,0,0,0,.22-3.71,4.85,4.85,0,0,0-2.42-2.78,5,5,0,0,0-4.7-.26,9.29,9.29,0,0,0-4,4.35l-.32.6a9.21,9.21,0,0,0-1.32,5.67A5.07,5.07,0,0,0,486.36,76.32Z"/><path d="M506.86,91.17a7.74,7.74,0,0,1,.72-2.16,8,8,0,0,1-6.49-.91,7.41,7.41,0,0,1-3.45-4.18,5.68,5.68,0,0,1,.63-4.87A6,6,0,0,1,503.08,76c2.07-.17,4.39.54,7,2.12l3,1.84.86-1.42a4,4,0,0,0,.61-3.16,4.48,4.48,0,0,0-2.26-2.7,5.22,5.22,0,0,0-3.27-.86,2.86,2.86,0,0,0-2.35,1.33l-3.1-1.9a5,5,0,0,1,2.55-2,7.65,7.65,0,0,1,3.82-.4A10.12,10.12,0,0,1,514,70.3a8.32,8.32,0,0,1,3.93,4.54,6.59,6.59,0,0,1-.79,5.41L512,88.55a12,12,0,0,0-1.78,4.33l-.16.27Zm-3.68-5.48a6.24,6.24,0,0,0,3.21.94,5.33,5.33,0,0,0,3.07-.8l2.26-3.7-2.41-1.48q-5.67-3.47-7.7-.15a3.3,3.3,0,0,0-.42,2.86A4.36,4.36,0,0,0,503.18,85.69Zm21.14-18.27a4.89,4.89,0,0,1-2.81,2.29,3.9,3.9,0,0,1-3.24-.45,4.14,4.14,0,0,1-1.08-.89,7.28,7.28,0,0,1-.89-1.48,6.33,6.33,0,0,0-.79-1.34,3,3,0,0,0-.76-.61,1.75,1.75,0,0,0-1.48-.19,2.25,2.25,0,0,0-1.31,1l-2-1.38a5.1,5.1,0,0,1,2.81-2.33,3.78,3.78,0,0,1,3.27.4,3.65,3.65,0,0,1,1,.81,9.26,9.26,0,0,1,.87,1.42,8.15,8.15,0,0,0,.84,1.38,3.06,3.06,0,0,0,.85.73,1.72,1.72,0,0,0,1.53.16,2.28,2.28,0,0,0,1.28-1Z"/><path d="M519.25,86.25a12.4,12.4,0,0,1,4.22-3.85,9.15,9.15,0,0,1,5-1.17A9.33,9.33,0,0,1,533.29,83a8.94,8.94,0,0,1,4,6.47,11.5,11.5,0,0,1-2.42,8l-.14.21a12.68,12.68,0,0,1-4.16,3.84,9,9,0,0,1-5,1.17,9.32,9.32,0,0,1-4.91-1.8,8.88,8.88,0,0,1-4-6.46,11.48,11.48,0,0,1,2.39-8ZM522,88.7A9.06,9.06,0,0,0,520,94.25a5.52,5.52,0,0,0,7.15,5,9.8,9.8,0,0,0,4.81-4,9,9,0,0,0,1.91-5.55,5.49,5.49,0,0,0-7.09-5A9.85,9.85,0,0,0,522,88.7Z"/></g></g></svg>