<svg xmlns="http://www.w3.org/2000/svg" viewBox="0 0 868.46 237.91"><g id="Layer_2" data-name="Layer 2"><g id="Layer_3" data-name="Layer 3"><path d="M435,119.5c-37.65-34.65-54.08-38.66-63.16-38.66-8.54,0-20.71,4.14-30.22,23.86-4.47,9.26-8.14,21.36-10.93,35.93-1.24,6.52-6.72,11.43-12.73,11.43a6.84,6.84,0,0,1-6.83-6.82V80.89c0-3.34,0-6.47.08-9.23.18-14.22.29-22.8-5.82-29A16.83,16.83,0,0,0,293,37.76c-17,0-27.09,10.5-35.18,18.94-7.75,8.08-12.53,12.66-20.64,12.66h-.34c-8.11,0-12.89-4.58-20.64-12.66-8.09-8.44-18.16-18.94-35.18-18.94a16.81,16.81,0,0,0-12.36,4.91c-6.11,6.19-6,14.77-5.82,29,0,2.76.07,5.89.07,9.23v64.35a6.83,6.83,0,0,1-6.82,6.82c-6,0-11.49-4.91-12.73-11.43-2.79-14.57-6.47-26.67-10.94-35.93C123,85,110.79,80.84,102.25,80.84c-9.08,0-25.52,4-63.17,38.66C19.56,137.47,3.63,155.14,3,155.89a11.53,11.53,0,1,0,17.15,15.43c.16-.18,15.87-17.6,34.6-34.84,33.67-31,45.51-32.56,47.54-32.56,4.28,0,12.73,10.93,18.48,41,3.34,17.49,18.23,30.18,35.4,30.18a29.93,29.93,0,0,0,29.9-29.9V80.89c0-3.49,0-6.7-.08-9.53,0-3.32-.09-6.89,0-9.7,4.42,1.59,8.26,5.39,13.65,11,8.44,8.81,18.94,19.76,37.29,19.76h.34c18.34,0,28.85-11,37.29-19.76,5.39-5.62,9.23-9.42,13.65-11,.08,2.81,0,6.38,0,9.7,0,2.83-.08,6-.08,9.53v64.35a29.93,29.93,0,0,0,29.9,29.9c17.17,0,32.06-12.69,35.4-30.18,5.75-30.11,14.2-41,18.48-41,2,0,13.83,1.56,47.42,32.45C438,153.61,453.83,171.14,454,171.32a11.54,11.54,0,0,0,17.16-15.43C470.47,155.14,454.54,137.47,435,119.5Z"/><path d="M538,28.27h15.19l3.46,9.49h4.91L547.66,1.49h-4.19L529.62,37.76h4.93ZM545.56,7.4l6.18,17H539.41Z"/><path d="M579.8,33.44a7.37,7.37,0,0,1-4.19,1.06A7.2,7.2,0,0,1,571,33.14a4.76,4.76,0,0,1-1.85-3.67h-4.61A7.73,7.73,0,0,0,566,33.92a9.38,9.38,0,0,0,3.9,3.2,13.63,13.63,0,0,0,5.73,1.14,12,12,0,0,0,7.49-2.18A6.88,6.88,0,0,0,586,30.29a6.32,6.32,0,0,0-1-3.67A8.09,8.09,0,0,0,581.78,24a24.84,24.84,0,0,0-5.59-1.84,16.53,16.53,0,0,1-4.77-1.62,2.81,2.81,0,0,1-1.32-2.52,3.43,3.43,0,0,1,1.42-2.86,6.26,6.26,0,0,1,3.94-1.1,6,6,0,0,1,4,1.37,4.13,4.13,0,0,1,1.61,3.26h4.63a7.53,7.53,0,0,0-2.85-6.05,11.24,11.24,0,0,0-7.43-2.37,11,11,0,0,0-7.17,2.29,7,7,0,0,0-2.8,5.61,6,6,0,0,0,1,3.44,7.87,7.87,0,0,0,3,2.49,23.43,23.43,0,0,0,5.56,1.79A13.62,13.62,0,0,1,580,27.71a3.4,3.4,0,0,1,1.41,2.91A3.24,3.24,0,0,1,579.8,33.44Z"/><path d="M606.11,33.44a7.43,7.43,0,0,1-4.2,1.06,7.17,7.17,0,0,1-4.57-1.36,4.8,4.8,0,0,1-1.86-3.67h-4.6a7.71,7.71,0,0,0,1.4,4.45,9.38,9.38,0,0,0,3.9,3.2,13.63,13.63,0,0,0,5.73,1.14,12.09,12.09,0,0,0,7.5-2.18,6.88,6.88,0,0,0,2.89-5.79,6.32,6.32,0,0,0-1-3.67A8,8,0,0,0,608.09,24a24.84,24.84,0,0,0-5.59-1.84,16.53,16.53,0,0,1-4.77-1.62,2.81,2.81,0,0,1-1.32-2.52,3.43,3.43,0,0,1,1.42-2.86,6.21,6.21,0,0,1,3.93-1.1,6,6,0,0,1,4,1.37,4.16,4.16,0,0,1,1.61,3.26h4.63a7.53,7.53,0,0,0-2.85-6.05,11.25,11.25,0,0,0-7.44-2.37,11,11,0,0,0-7.16,2.29,7,7,0,0,0-2.8,5.61,6,6,0,0,0,1,3.44,8,8,0,0,0,3,2.49,23.13,23.13,0,0,0,5.56,1.79,13.56,13.56,0,0,1,4.9,1.78,3.4,3.4,0,0,1,1.41,2.91A3.25,3.25,0,0,1,606.11,33.44Z"/><path d="M629.31,10.31A11.86,11.86,0,0,0,623,12a11.7,11.7,0,0,0-4.33,4.88A15.92,15.92,0,0,0,617.08,24v.32q0,6.29,3.4,10.09a11.35,11.35,0,0,0,8.88,3.81,12,12,0,0,0,6.44-1.74,11.41,11.41,0,0,0,4.31-4.87,16,16,0,0,0,1.51-7.06v-.33c0-4.22-1.13-7.59-3.4-10.14A11.38,11.38,0,0,0,629.31,10.31Zm5.63,21.44a7,7,0,0,1-11.14,0,11.51,11.51,0,0,1-2.08-7.2c0-3.37.69-6,2.09-7.78a6.6,6.6,0,0,1,5.5-2.71,6.72,6.72,0,0,1,5.6,2.75A11.54,11.54,0,0,1,637,24Q637,29,634.94,31.75Z"/><path d="M658.21,38.26A11.28,11.28,0,0,0,663.4,37a10.54,10.54,0,0,0,3.93-3.34,8.35,8.35,0,0,0,1.59-4.41h-4.36a5.26,5.26,0,0,1-2,3.74,6.68,6.68,0,0,1-4.31,1.49A6.49,6.49,0,0,1,652.73,32q-1.92-2.52-1.92-7.18v-.87q0-4.78,1.93-7.31a6.44,6.44,0,0,1,5.44-2.53,6.17,6.17,0,0,1,4.4,1.68,6.32,6.32,0,0,1,2,4.3h4.36a9.7,9.7,0,0,0-3.2-7,10.81,10.81,0,0,0-7.54-2.72,11.82,11.82,0,0,0-6.39,1.7,11,11,0,0,0-4.14,4.76,16.09,16.09,0,0,0-1.45,7v.78q0,6.38,3.25,10.05A11.11,11.11,0,0,0,658.21,38.26Z"/><rect x="674.5" y="10.81" width="4.61" height="26.95"/><path d="M676.84,6.28a2.67,2.67,0,0,0,2-.75,2.65,2.65,0,0,0,.69-1.87,2.72,2.72,0,0,0-.69-1.89,2.61,2.61,0,0,0-2-.77,2.57,2.57,0,0,0-2,.77,2.71,2.71,0,0,0-.68,1.89,2.64,2.64,0,0,0,.68,1.87A2.63,2.63,0,0,0,676.84,6.28Z"/><path d="M697.92,21.42q-5.8,0-9,2.33a7.63,7.63,0,0,0-3.2,6.54A7.3,7.3,0,0,0,688.26,36a9.55,9.55,0,0,0,6.54,2.25,10.28,10.28,0,0,0,7.68-3.34,9.65,9.65,0,0,0,.64,2.84H708v-.39a15,15,0,0,1-1-5.91V19.06a8.43,8.43,0,0,0-2.74-6.42,10.66,10.66,0,0,0-7.3-2.33,13.05,13.05,0,0,0-5.39,1.1,9.74,9.74,0,0,0-3.89,3,6.37,6.37,0,0,0-1.43,3.89h4.63a3.68,3.68,0,0,1,1.67-3A6.72,6.72,0,0,1,696.7,14,5.81,5.81,0,0,1,701,15.46a5.18,5.18,0,0,1,1.44,3.85v2.11Zm4.48,8.8a6.83,6.83,0,0,1-2.81,2.91,8.1,8.1,0,0,1-4.11,1.12A5.54,5.54,0,0,1,691.76,33a4.19,4.19,0,0,1-1.44-3.39q0-5,8.47-4.95h3.61Z"/><path d="M722.47,38l-.79,3.29a8.19,8.19,0,0,1,3.24.74,1.81,1.81,0,0,1,.8,1.62,2,2,0,0,1-1.09,1.82,6,6,0,0,1-3,.65l.18,2.67a9.49,9.49,0,0,0,5.55-1.41,4.45,4.45,0,0,0,2-3.83q0-3.63-3.81-4.31l.25-1.06a11.33,11.33,0,0,0,4.5-1.2,10.58,10.58,0,0,0,3.92-3.34,8.45,8.45,0,0,0,1.6-4.41H731.4a5.31,5.31,0,0,1-2,3.74A6.66,6.66,0,0,1,725,34.5,6.5,6.5,0,0,1,719.56,32c-1.28-1.68-1.91-4.07-1.91-7.18v-.87q0-4.78,1.93-7.31A6.43,6.43,0,0,1,725,14.1a6.18,6.18,0,0,1,4.4,1.68,6.41,6.41,0,0,1,2,4.3h4.36a9.71,9.71,0,0,0-3.21-7A10.8,10.8,0,0,0,725,10.31a11.77,11.77,0,0,0-6.39,1.7,11,11,0,0,0-4.15,4.76,16.23,16.23,0,0,0-1.44,7v.78q0,6.38,3.25,10.05A10.59,10.59,0,0,0,722.47,38Z"/><path d="M752.37,21.42q-5.8,0-9,2.33a7.62,7.62,0,0,0-3.21,6.54A7.31,7.31,0,0,0,742.72,36a9.52,9.52,0,0,0,6.54,2.25,10.26,10.26,0,0,0,7.67-3.34,9.26,9.26,0,0,0,.65,2.84h4.83v-.39a15.22,15.22,0,0,1-.95-5.91V19.06a8.39,8.39,0,0,0-2.74-6.42,10.66,10.66,0,0,0-7.3-2.33,13.08,13.08,0,0,0-5.39,1.1,9.74,9.74,0,0,0-3.89,3,6.37,6.37,0,0,0-1.43,3.89h4.64a3.67,3.67,0,0,1,1.66-3A6.76,6.76,0,0,1,751.15,14a5.78,5.78,0,0,1,4.26,1.44,5.18,5.18,0,0,1,1.44,3.85v2.11Zm4.48,8.8A6.77,6.77,0,0,1,754,33.13a8.1,8.1,0,0,1-4.11,1.12A5.51,5.51,0,0,1,746.22,33a4.2,4.2,0,0,1-1.45-3.39q0-5,8.47-4.95h3.61Z"/><path d="M747,4.75A2.26,2.26,0,0,1,748.71,4a4.53,4.53,0,0,1,1.23.16,8.46,8.46,0,0,1,1.75.94,9.78,9.78,0,0,0,1.95,1,5.81,5.81,0,0,0,1.77.25,5,5,0,0,0,3.82-1.67A6.16,6.16,0,0,0,760.77.3L757.68,0A3,3,0,0,1,757,2a2.25,2.25,0,0,1-1.78.84,4.17,4.17,0,0,1-1.41-.22A10.14,10.14,0,0,1,752,1.64a11.78,11.78,0,0,0-1.9-1,4.74,4.74,0,0,0-1.57-.25,4.82,4.82,0,0,0-3.82,1.75,6.52,6.52,0,0,0-1.51,4.41l3.09.17A2.8,2.8,0,0,1,747,4.75Z"/><path d="M790.5,31.65a16.14,16.14,0,0,0,1.5-7.06v-.33c0-4.22-1.13-7.59-3.4-10.14a11.35,11.35,0,0,0-8.9-3.81A11.47,11.47,0,0,0,769,16.91,16.05,16.05,0,0,0,767.47,24v.32q0,6.29,3.4,10.09a11.32,11.32,0,0,0,8.88,3.81,12,12,0,0,0,6.44-1.74A11.48,11.48,0,0,0,790.5,31.65Zm-5.17.1a7.06,7.06,0,0,1-11.15,0,11.51,11.51,0,0,1-2.08-7.2c0-3.37.7-6,2.09-7.78a6.62,6.62,0,0,1,5.51-2.71,6.7,6.7,0,0,1,5.59,2.75A11.54,11.54,0,0,1,787.4,24Q787.4,29,785.33,31.75Z"/><polygon points="534.42 76.01 534.42 129.87 545.52 129.87 545.52 115.15 544.41 89.77 558.91 129.87 566.53 129.87 581.07 89.73 579.96 115.15 579.96 129.87 591.09 129.87 591.09 76.01 576.52 76.01 562.76 115.07 548.92 76.01 534.42 76.01"/><path d="M630.55,94.06q-5.13-4.95-13.23-5a19.31,19.31,0,0,0-10,2.56,16.77,16.77,0,0,0-6.6,7.21,23.75,23.75,0,0,0-2.29,10.62V110q0,9.54,5.16,15.09t13.81,5.55q8.67,0,13.8-5.57t5.14-14.78l-.07-2.73Q635.67,99,630.55,94.06Zm-7.09,25a7.71,7.71,0,0,1-12.21,0q-2.14-3-2.14-8.72c0-4.28.71-7.43,2.14-9.47a7,7,0,0,1,6.07-3.06,7.09,7.09,0,0,1,6.14,3.08c1.46,2,2.18,4.94,2.18,8.67C625.64,113.84,624.92,117,623.46,119Z"/><path d="M665.41,99.87l.15-10.28a11.27,11.27,0,0,0-3.33-.49q-5.7,0-8.92,5.52L653,89.84h-10.1v40h10.69V103.68q1.89-4.11,7.95-4.11A28.63,28.63,0,0,1,665.41,99.87Z"/><path d="M668.18,110.08q0,9.61,5,15.07t13.54,5.46a18.64,18.64,0,0,0,8.38-1.87,14.52,14.52,0,0,0,6-5.25,13.64,13.64,0,0,0,2.22-7.45h-10a5.68,5.68,0,0,1-1.93,4.32,7,7,0,0,1-4.8,1.63,6.53,6.53,0,0,1-5.74-2.7c-1.26-1.81-1.88-4.77-1.88-8.9v-1.11c0-4.07.63-7,1.9-8.83a7.13,7.13,0,0,1,10.52-.77,7.31,7.31,0,0,1,1.93,5.07h10q-.07-7.09-4.6-11.37t-12-4.28q-8.58,0-13.51,5.52t-4.92,14.76Z"/><path d="M726.6,89.1a18.5,18.5,0,0,0-9.75,2.58,17,17,0,0,0-6.6,7.32,24.09,24.09,0,0,0-2.34,10.78v1q0,9,5.53,14.39t14.34,5.4a21.52,21.52,0,0,0,9.1-1.9,16.08,16.08,0,0,0,6.51-5.31l-5.25-5.89a11.54,11.54,0,0,1-9.66,4.48,9.44,9.44,0,0,1-6.6-2.37,9.94,9.94,0,0,1-3.13-6.29h25.49V109q0-9.51-4.72-14.69T726.6,89.1Zm7.14,17H718.86a11.16,11.16,0,0,1,2.54-6.17,6.67,6.67,0,0,1,5.16-2.16,6.88,6.88,0,0,1,5.25,2,8,8,0,0,1,1.93,5.52Z"/><path d="M775.2,93.62Q771.54,89.1,765,89.1a14.2,14.2,0,0,0-11.82,5.63q-4.38,5.63-4.39,14.83V110q0,9.33,4.46,15a14.16,14.16,0,0,0,11.67,5.64,12.36,12.36,0,0,0,9.73-4.18v2.15a8.53,8.53,0,0,1-2.37,6.45,9.13,9.13,0,0,1-6.62,2.28,12.53,12.53,0,0,1-9.69-4.48l-4.73,6.51a15.17,15.17,0,0,0,6.32,4.53,22,22,0,0,0,8.58,1.76,23.59,23.59,0,0,0,10.14-2,15.34,15.34,0,0,0,6.71-5.91,17.13,17.13,0,0,0,2.39-9.14V89.84h-9.69Zm-.59,24.7q-2.1,3.68-7,3.67a6.93,6.93,0,0,1-6-3.09c-1.46-2.07-2.19-4.91-2.19-8.54,0-4.18.74-7.31,2.21-9.41a7,7,0,0,1,6-3.15c3.19,0,5.49,1.22,6.92,3.67Z"/><path d="M824,94.06q-5.12-4.95-13.22-5a19.31,19.31,0,0,0-10,2.56,16.77,16.77,0,0,0-6.6,7.21,23.75,23.75,0,0,0-2.29,10.62V110q0,9.54,5.16,15.09t13.81,5.55q8.67,0,13.8-5.57t5.14-14.78l-.07-2.73Q829.15,99,824,94.06Zm-7.08,25a7.71,7.71,0,0,1-12.21,0q-2.15-3-2.14-8.72c0-4.28.71-7.43,2.14-9.47a7,7,0,0,1,6.07-3.06,7.09,7.09,0,0,1,6.14,3.08c1.46,2,2.18,4.94,2.18,8.67C819.11,113.84,818.39,117,816.93,119Z"/><path d="M860,107.6a47.43,47.43,0,0,0-6.73-1.79,17.18,17.18,0,0,1-5.68-1.89,3.3,3.3,0,0,1-1.68-2.87,3.84,3.84,0,0,1,1.48-3.1,6.35,6.35,0,0,1,4.18-1.22,6.26,6.26,0,0,1,4.62,1.49,5.17,5.17,0,0,1,1.48,3.79h10.69a11.29,11.29,0,0,0-4.57-9.32q-4.56-3.59-12.19-3.59-7.14,0-11.56,3.57a11,11,0,0,0-4.42,8.9q0,9.14,14.28,12.13a22.3,22.3,0,0,1,6.23,2,3.44,3.44,0,0,1,2,3.09,3.63,3.63,0,0,1-1.58,3,7.69,7.69,0,0,1-4.64,1.17,8.38,8.38,0,0,1-5.25-1.52,5.58,5.58,0,0,1-2.11-4.37H834.35a11.46,11.46,0,0,0,2.22,6.76,15,15,0,0,0,6.13,4.92,21.25,21.25,0,0,0,8.93,1.79q7.44,0,12.13-3.38a10.45,10.45,0,0,0,4.7-8.86Q868.46,110.71,860,107.6Z"/><path d="M551,180a18.49,18.49,0,0,0-9.75,2.57,17,17,0,0,0-6.6,7.32,24.13,24.13,0,0,0-2.34,10.79v1q0,9,5.53,14.39t14.34,5.4a21.36,21.36,0,0,0,9.1-1.9,16,16,0,0,0,6.51-5.31l-5.25-5.88a11.56,11.56,0,0,1-9.66,4.47,9.48,9.48,0,0,1-6.6-2.36,10,10,0,0,1-3.13-6.29H568.6v-4.37q0-9.51-4.71-14.68T551,180ZM558.1,197H543.22a11.16,11.16,0,0,1,2.54-6.17,6.67,6.67,0,0,1,5.16-2.15,6.88,6.88,0,0,1,5.25,2,8,8,0,0,1,1.93,5.51Z"/><path d="M619.17,180a13.74,13.74,0,0,0-12,6.1q-2.89-6.1-10.62-6.1a14,14,0,0,0-11.5,5.21l-.34-4.47h-10v40h10.69v-28.3a6.93,6.93,0,0,1,6.58-3.77q3.3,0,4.66,1.55c.92,1,1.37,2.72,1.37,5v25.49h10.69l0-27.48a6.67,6.67,0,0,1,6.66-4.59c2.24,0,3.81.52,4.69,1.57s1.34,2.71,1.34,5v25.52H632V195.22q0-7.62-3.18-11.41T619.17,180Z"/><path d="M675.32,166.92l-20.05,53.86h11.81l3.69-11.1h19.46l3.74,11.1h11.8l-20.16-53.86Zm-1.55,33.78,6.7-20.17,6.77,20.17Z"/><path d="M721,191.36a7.15,7.15,0,0,1,10.52-.77,7.31,7.31,0,0,1,1.93,5.07h10q-.07-7.09-4.6-11.37t-12-4.27q-8.58,0-13.5,5.51t-4.92,14.76v.7q0,9.62,5,15.08a16.18,16.18,0,0,0,9.13,5l-1,4.75a12.24,12.24,0,0,1,4,.76,2.13,2.13,0,0,1,1.23,2.13q0,3-4.14,3l.26,6.18q6.14,0,9.53-2.37a7.46,7.46,0,0,0,3.38-6.43q0-5.42-5.55-6.4l.28-1.5a17.6,17.6,0,0,0,4.81-1.56,14.52,14.52,0,0,0,6-5.25A13.64,13.64,0,0,0,743.5,207h-10a5.7,5.7,0,0,1-1.93,4.33,7,7,0,0,1-4.81,1.62,6.52,6.52,0,0,1-5.73-2.7c-1.26-1.8-1.89-4.77-1.89-8.89v-1.12C719.12,196.12,719.76,193.17,721,191.36Z"/><path d="M759.06,172a2.94,2.94,0,0,1,2.2-.93,6.84,6.84,0,0,1,1.85.24,16.2,16.2,0,0,1,2.77,1.28,16.68,16.68,0,0,0,3,1.35,9,9,0,0,0,2.49.31,7.57,7.57,0,0,0,6-2.83,10.32,10.32,0,0,0,2.44-7l-6.18-.4a3.42,3.42,0,0,1-.94,2.6,3.1,3.1,0,0,1-2.24.91,6.87,6.87,0,0,1-1.77-.22,20.58,20.58,0,0,1-3.07-1.3,24.61,24.61,0,0,0-3.2-1.35,7.87,7.87,0,0,0-2.09-.27,7.47,7.47,0,0,0-5.94,2.88,10.47,10.47,0,0,0-2.42,7l6.21.37A3.55,3.55,0,0,1,759.06,172Z"/><path d="M782,194.18q0-6.72-4.35-10.45T765.92,180a22.18,22.18,0,0,0-8.81,1.68,14.19,14.19,0,0,0-6.06,4.64,10.77,10.77,0,0,0-2.15,6.44h10.69a4.38,4.38,0,0,1,1.54-3.55,6.31,6.31,0,0,1,4.23-1.3,5.61,5.61,0,0,1,4.5,1.67,6.59,6.59,0,0,1,1.42,4.44v2.29h-4.92q-8.91,0-13.63,3.44a11.32,11.32,0,0,0-4.72,9.77,10.94,10.94,0,0,0,3.87,8.58,14.22,14.22,0,0,0,9.75,3.4,12.93,12.93,0,0,0,10.1-4.33,11.91,11.91,0,0,0,1.07,3.59h10.8v-.63c-1-1.94-1.56-4.82-1.59-8.62Zm-10.73,15.28a6.82,6.82,0,0,1-3,2.83,9.1,9.1,0,0,1-4.36,1.06,5.44,5.44,0,0,1-3.85-1.3,4.26,4.26,0,0,1-1.4-3.29l0-.63q.53-5.55,8.55-5.55h4Z"/><path d="M820.69,185q-5.13-5-13.23-4.95a19.3,19.3,0,0,0-10,2.55,16.77,16.77,0,0,0-6.6,7.21,23.75,23.75,0,0,0-2.29,10.62v.48q0,9.54,5.16,15.09t13.82,5.55q8.65,0,13.79-5.56t5.14-14.78l-.07-2.74Q825.82,189.94,820.69,185Zm-7.09,24.95a7.71,7.71,0,0,1-12.21,0q-2.14-3-2.14-8.72,0-6.41,2.14-9.47a7,7,0,0,1,6.07-3.05,7.08,7.08,0,0,1,6.14,3.07c1.46,2,2.18,4.94,2.18,8.67C815.78,204.75,815.06,207.93,813.6,209.92Z"/></g></g></svg>