<svg xmlns="http://www.w3.org/2000/svg" viewBox="0 0 924.59 267.91"><defs><style>.cls-1{fill:#231f20;}</style></defs><g id="Layer_2" data-name="Layer 2"><g id="icon"><path class="cls-1" d="M902.1,267.91a22.46,22.46,0,0,1-16.74-7.45c-.3-.34-31.15-34.54-67.7-68.15C752.16,132.07,729.14,129,725.18,129c-8.34,0-24.82,21.31-36,80-6.51,34.1-35.54,58.85-69,58.85a58.37,58.37,0,0,1-58.3-58.31V84.11c0-6.82.08-13.07.15-18.58.08-6.48.17-13.45,0-18.92-8.64,3.08-16.11,10.51-26.62,21.47-16.47,17.17-37,38.53-72.74,38.53H462c-35.78,0-56.27-21.36-72.73-38.53-10.52-11-18-18.38-26.63-21.47-.14,5.47-.05,12.44,0,18.92.07,5.52.15,11.76.15,18.58V209.6a58.38,58.38,0,0,1-58.31,58.31c-33.49,0-62.53-24.75-69-58.85-11.21-58.73-27.7-80-36-80-3.95,0-27,3-92.48,63.29-36.55,33.61-67.4,67.81-67.7,68.15a22.5,22.5,0,1,1-33.46-30.1c1.3-1.45,32.38-35.91,70.45-71C149.65,91.83,181.69,84,199.41,84c16.65,0,40.38,8.07,58.92,46.51,8.72,18.07,15.89,41.66,21.32,70.09,2.43,12.71,13.11,22.29,24.84,22.29A13.32,13.32,0,0,0,317.8,209.6V84.11c0-6.53-.08-12.62-.15-18-.36-27.74-.57-44.48,11.35-56.55C333.3,5.2,341,0,353.1,0c33.2,0,52.84,20.48,68.62,36.93C436.83,52.7,446.15,61.61,462,61.61h.65c15.82,0,25.14-8.91,40.26-24.68C518.65,20.48,538.29,0,571.49,0c12.12,0,19.8,5.2,24.11,9.56,11.91,12.07,11.7,28.81,11.34,56.55-.07,5.37-.14,11.47-.14,18V209.6a13.32,13.32,0,0,0,13.3,13.31c11.74,0,22.41-9.58,24.84-22.29,5.43-28.43,12.6-52,21.32-70.09C684.8,92.09,708.53,84,725.18,84c17.72,0,49.76,7.81,123.19,75.39,38.07,35,69.15,69.5,70.45,71a22.5,22.5,0,0,1-16.72,37.55Z"/></g></g></svg>