<svg xmlns="http://www.w3.org/2000/svg" viewBox="0 0 525.5 547.76"><defs><style>.cls-1{fill:#231f20;}.cls-2{opacity:0.5;}.cls-3{fill:#fff;}</style></defs><g id="Layer_2" data-name="Layer 2"><g id="Layer_6" data-name="Layer 6"><path class="cls-1" d="M22,364.1l0,0h0Z"/><path class="cls-1" d="M455.88,364.11h0l0,0Z"/><g class="cls-2"><path class="cls-1" d="M381.61,235.35c-2.35-24.39-12.34-46.88-27.41-61.75C339,158.21,317.27,149.24,294.51,149c-12.09-.44-24,1.62-34.57,3.45-7.66,1.32-14.9,2.57-21.28,2.76l-1,0-1,.24c-7.47,1.78-15.82,2.28-24.67,2.81-9.41.56-19.15,1.15-29.3,3.29-21.64,4-42.43,14.84-57.06,29.65a100.35,100.35,0,0,0-28.26,56c-.17,1-.32,2-.45,3a52.88,52.88,0,0,1,7.26-.51A50.23,50.23,0,0,1,117,251.3c0-.29.08-.58.13-.87l0-.28a79.87,79.87,0,0,1,22.56-44.72l.09-.1c11.86-12,28.87-20.8,46.66-24.1l.24,0c8.74-1.85,17.76-2.39,26.48-2.92,9-.53,18.24-1.09,27.11-3.09,7.47-.31,15.06-1.62,23.08-3,10.08-1.74,20.51-3.55,30.55-3.16h.29c17.58.16,34.28,7,45.81,18.69l.11.11c11.83,11.65,19.71,29.72,21.61,49.58l0,.25a131.62,131.62,0,0,1,.85,13.27,50.27,50.27,0,0,1,11.16-1.26,53.63,53.63,0,0,1,8.83.75A147.09,147.09,0,0,0,381.61,235.35Zm2.83,94.12-2.18-1.62c-1.11,3.74-2.28,8.48-3.42,14.41a61.76,61.76,0,0,1-14,28.93c-2.33,16.39-9.08,30.94-19.08,40.78l-.12.12c-11.48,11.68-28.78,18.31-47.33,18.21H298c-10.55.24-21.64-1.7-32.35-3.58-8.83-1.55-17.19-3-25.41-3.39-9.75-2.15-19.94-2.74-29.81-3.32-9.21-.53-18.73-1.08-27.85-2.9l-.24-.05c-18.84-3.28-36.41-12-48.22-24l-.1-.1a70.31,70.31,0,0,1-9.29-11.34,61.49,61.49,0,0,1-25.7-39.36c-1.14-5.93-2.31-10.67-3.42-14.41-.8.59-1.64,1.21-2.53,1.9a116.94,116.94,0,0,0,.2,20.71A91.66,91.66,0,0,0,120,407.15c14.64,14.83,36.08,25.6,58.86,29.6,10.44,2.07,20.63,2.66,30.48,3.23s19,1.1,27.39,3l.94.22,1,0c7.15.25,15.15,1.66,23.62,3.14,11,1.92,22.26,3.9,34,3.9.71,0,1.43,0,2.15,0h.39c23.73,0,46-8.78,61.11-24.13,15.24-15,24.64-37.84,25.79-62.64C386.44,352,385.47,340.55,384.44,329.47Z"/></g><g class="cls-2"><path class="cls-1" d="M426.52,214.1c-3.07-31.89-16.08-61.26-35.71-80.62-19.72-20-48-31.63-77.57-31.93-15.85-.59-31,2-45.63,4.57-10.37,1.79-20.17,3.49-29,3.74l-1,0-1,.24C226.34,112.58,215,113.26,203,114c-12.49.75-25.4,1.53-38.76,4.34-28.32,5.28-55.52,19.41-74.64,38.76a130.85,130.85,0,0,0-36.86,73c-2.31,13.66-2.14,26.51-2,38.94,0,1.19,0,2.37,0,3.54a165.28,165.28,0,0,1,19.87-13.08,155.36,155.36,0,0,1,1.8-26.17l0-.28a110.44,110.44,0,0,1,31.17-61.79l.1-.1C120.16,154.61,143.57,142.5,168,138l.25-.05c11.94-2.52,24.14-3.26,35.94-4,12.52-.75,24.38-1.47,36-4.13,9.88-.38,20-2.14,30.76-4,13.66-2.36,27.77-4.81,41.59-4.28h.29c24.42.21,47.63,9.7,63.7,26l.11.11c16.39,16.13,27.29,41.08,29.9,68.44l0,.25c1.66,13.73,1.24,28.15.84,42.09l0,1.19a167.64,167.64,0,0,1,19.69,13c.06-4.45.2-9,.33-13.62C427.91,244.4,428.35,229.27,426.52,214.1ZM411.34,352.86a208.2,208.2,0,0,1,.57,30.93v.27c-1.24,27.45-11.31,52.41-27.64,68.47l-.11.11C368.26,468.8,344.53,478,319,478h-.87c-14.47.33-29.46-2.3-44-4.84-11.81-2.07-23-4-33.86-4.5-12.87-2.88-26.48-3.67-39.65-4.43-12.44-.73-25.31-1.47-37.74-3.95l-.24-.05c-25.89-4.5-50.08-16.56-66.37-33.08l-.1-.1a99,99,0,0,1-28.86-61.41l0-.29a106.82,106.82,0,0,1-.62-12.63c-7.43,7.1-14,13.84-18.84,18.87a119.43,119.43,0,0,0,34.25,69.65c19.12,19.37,47.18,33.46,77,38.68,13.75,2.73,27.28,3.51,40.37,4.27s25.74,1.5,37.23,4.16l.94.22,1,0c9.8.34,20.62,2.24,32.07,4.25,14.52,2.54,29.5,5.17,44.88,5.17q1.43,0,2.85,0H319c30.87,0,59.77-11.39,79.39-31.3,19.82-19.53,32-49.28,33.52-81.64.26-3.72.39-7.44.4-11.14C427.41,368.8,419.9,361,411.34,352.86Z"/></g><g class="cls-2"><path class="cls-1" d="M480.48,388.12a35.33,35.33,0,0,1-16,3.82,34.48,34.48,0,0,1-4-.22c0,4.88-.11,9.73-.45,14.52v.26c-1.6,35.34-14.61,67.51-35.7,88.25l-.11.12C403.69,515.78,373,527.73,340,527.73h-1c-18.52.42-37.6-2.93-56.05-6.16-14.91-2.61-29-5.09-42.67-5.66-16.12-3.63-33.28-4.62-49.89-5.59-15.81-.92-32.15-1.86-48-5l-.24-.05c-33.23-5.78-64.31-21.29-85.26-42.53l-.1-.11a128,128,0,0,1-36.31-71.36A35.44,35.44,0,0,1,0,389.3a148.24,148.24,0,0,0,42.65,87.5c23.78,24.09,58.73,41.63,95.9,48.13,17.21,3.41,34.22,4.4,50.67,5.36,16.84,1,32.74,1.9,47.47,5.32l.94.22,1,0c12.57.44,26.32,2.86,40.89,5.41,18.23,3.2,37,6.5,56.24,6.49l3.57,0H340c38.31,0,74.14-14.11,98.44-38.78C463,484.74,478.19,447.78,480,407.53,480.49,401.05,480.6,394.58,480.48,388.12Zm-4.88-88.84-.11-.92c-2-15.55-1.52-32.27-1-50C475,230,475.57,211,473.28,192c-3.82-39.7-20-76.23-44.37-100.26-24.43-24.79-59.47-39.2-96.18-39.56C313,51.4,294,54.69,275.61,57.87c-13.2,2.28-25.66,4.44-37,4.77l-1,0-1,.24c-13.22,3.15-27.63,4-42.9,4.93-15.69.94-31.91,1.91-48.6,5.43C109.84,79.85,76,97.43,52.18,121.52A162.6,162.6,0,0,0,6.36,212.31c-2.89,17-2.67,33.16-2.46,48.75.17,13,.34,25.21-1.44,36.2l-.18,1.12.08,1.14a135.06,135.06,0,0,1-.14,17c5.8-5.93,12.89-13,20.56-20.09,1.44-11.45,1.29-23.24,1.12-35.66-.2-14.73-.41-30,2.2-45.25l0-.27A142.19,142.19,0,0,1,66.28,135.7l.09-.09c21-21.3,51.1-36.86,82.53-42.69l.25,0c15.27-3.24,30.78-4.17,45.78-5.07,15.8-.94,30.74-1.84,45.34-5.2,12.39-.46,25.21-2.68,38.75-5,17.39-3,35.36-6.13,53.1-5.45h.29c31.53.28,61.53,12.55,82.31,33.66l.11.11C436,126.71,450,158.82,453.38,194l0,.25c2.13,17.54,1.59,35.85,1.08,53.56-.47,16.18-1,32.85.65,48.66,7.55,7,14.53,14,20.29,19.82-.18-5.5-.17-10.87.12-16.08Z"/></g><path d="M472.18,365a11.53,11.53,0,0,1-7.71,3,11.66,11.66,0,0,1-5.13-1.19c-.37-.19-.74-.4-1.09-.62a11.47,11.47,0,0,1-1-.72,12.16,12.16,0,0,1-.93-.84c-.15-.14-.29-.29-.44-.45h0a.77.77,0,0,0-.1-.12.38.38,0,0,0-.09-.09c-1.59-1.77-12.1-13.26-25.6-26.32-2.85-2.75-5.84-5.58-8.9-8.4-4.65-4.27-8.88-8-12.72-11.21-11.83-9.92-20-15.22-25.47-18s-8.34-3.19-9.23-3.19c-2.58,0-6.69,4-10.8,13.78-2.7,6.42-5.4,15.34-7.68,27.26-3.34,17.49-18.23,30.18-35.4,30.18A29.94,29.94,0,0,1,290,338V273.69c0-3.49,0-6.7.08-9.53,0-3.32.09-6.89,0-9.7-4.42,1.58-8.26,5.39-13.65,11-8.44,8.8-19,19.76-37.29,19.76h-.34c-18.34,0-28.85-11-37.29-19.76-5.39-5.62-9.23-9.43-13.65-11-.08,2.81,0,6.38,0,9.7,0,2.83.08,6,.08,9.53V338a29.94,29.94,0,0,1-29.9,29.9c-17.17,0-32.06-12.69-35.4-30.18-2.32-12.1-5.06-21.11-7.8-27.55-4.07-9.58-8.12-13.49-10.68-13.49-.89,0-3.62.29-9.2,3.18s-13.8,8.22-25.81,18.33c-3.79,3.19-8,6.85-12.53,11-3.21,3-6.34,5.92-9.31,8.81-14.08,13.64-24.75,25.43-25.26,26h0c-.15.16-.29.31-.44.45a12.16,12.16,0,0,1-.93.84,11.41,11.41,0,0,1-2,1.28c-.2.11-.41.2-.61.29s-.64.26-1,.37l-.27.09c-.33.1-.68.19-1,.26h0a11.82,11.82,0,0,1-1.17.18,11.51,11.51,0,0,1-1.18.06,13.27,13.27,0,0,1-1.54-.1c-.34,0-.68-.11-1-.19h0a12.79,12.79,0,0,1-1.49-.45c-.33-.12-.65-.26-1-.41A11.87,11.87,0,0,1,5.72,365a11.55,11.55,0,0,1-.86-16.3l0,0,.07-.07c1-1.06,7.12-7.86,16.09-17,5.71-5.79,12.56-12.53,19.92-19.3q4.59-4.23,8.77-7.85a254,254,0,0,1,20.93-16.6c11.21-7.87,19.21-11.48,25.14-13.06a31.68,31.68,0,0,1,8.33-1.15,26.09,26.09,0,0,1,11.69,2.76c6.23,3.11,12.85,9.32,18.53,21.09,4.46,9.27,8.14,21.36,10.93,35.94C146.54,340,152,344.86,158,344.86a6.84,6.84,0,0,0,6.83-6.82V273.69c0-3.35,0-6.47-.08-9.23-.18-14.22-.29-22.81,5.82-29A16.81,16.81,0,0,1,183,230.56c17,0,27.09,10.5,35.18,18.94,7.75,8.08,12.53,12.66,20.64,12.66h.34c8.11,0,12.89-4.58,20.64-12.66,8.09-8.44,18.16-18.94,35.18-18.94a16.81,16.81,0,0,1,12.36,4.91c6.11,6.18,6,14.77,5.82,29,0,2.76-.08,5.88-.08,9.23V338a6.84,6.84,0,0,0,6.83,6.82c6,0,11.49-4.91,12.73-11.43,2.79-14.58,6.47-26.67,10.93-35.94,5.71-11.83,12.37-18.05,18.63-21.13a26,26,0,0,1,11.59-2.72,31.48,31.48,0,0,1,8.44,1.18c5.94,1.6,13.95,5.24,25.16,13.12a256.79,256.79,0,0,1,20.82,16.53q4.17,3.61,8.74,7.83c7.1,6.54,13.73,13,19.31,18.68,9.31,9.42,15.74,16.5,16.71,17.59l.07.07,0,0A11.55,11.55,0,0,1,472.18,365Z"/><path class="cls-1" d="M22,364.1l0,0h0Z"/><path class="cls-1" d="M455.88,364.11h0l0,0Z"/><path class="cls-3" d="M22,364.11h0l0,0Zm433.84,0,0,0h0Z"/><path d="M69.32,61,59.25,66.8l1.35,7.58-3.26,1.87L52.72,47l2.77-1.59,23,18.74L75.22,66Zm-10.6,2.64L66.89,59,56.35,50.09Z"/><path d="M89.61,53.45a2.57,2.57,0,0,0-1.87-1.6,10.13,10.13,0,0,0-4,.25,17.9,17.9,0,0,1-4.44.44,6,6,0,0,1-2.88-.81,4.47,4.47,0,0,1-1.74-2.11,5.31,5.31,0,0,1,.24-4.77,8.39,8.39,0,0,1,4.31-3.8,8.59,8.59,0,0,1,5.93-.61A5.76,5.76,0,0,1,89,43.8l-3.25,1.42a3.17,3.17,0,0,0-2.12-1.8,4.64,4.64,0,0,0-3.25.28,4.87,4.87,0,0,0-2.42,2,2.61,2.61,0,0,0-.11,2.44,2.14,2.14,0,0,0,1.69,1.36,12.4,12.4,0,0,0,3.83-.33,19.34,19.34,0,0,1,4.48-.42,6.25,6.25,0,0,1,3,.84,4.8,4.8,0,0,1,1.84,2.25,5.25,5.25,0,0,1-.25,4.94,9.26,9.26,0,0,1-4.58,3.81,10.3,10.3,0,0,1-4.36.95,7,7,0,0,1-3.7-1,5.86,5.86,0,0,1-2.35-2.68l3.23-1.4a3.66,3.66,0,0,0,2.42,2,5.48,5.48,0,0,0,3.61-.45,5.75,5.75,0,0,0,2.62-2A2.49,2.49,0,0,0,89.61,53.45Z"/><path d="M108.39,46.74A2.62,2.62,0,0,0,106.68,45a10.16,10.16,0,0,0-4-.12,17.91,17.91,0,0,1-4.46,0,6.09,6.09,0,0,1-2.8-1.08,4.55,4.55,0,0,1-1.53-2.26,5.32,5.32,0,0,1,.69-4.73,8.38,8.38,0,0,1,4.65-3.37,8.6,8.6,0,0,1,6-.06,5.71,5.71,0,0,1,3.51,3.71l-3.36,1.11a3.19,3.19,0,0,0-1.94-2,4.62,4.62,0,0,0-3.26,0,4.79,4.79,0,0,0-2.6,1.74,2.63,2.63,0,0,0-.35,2.41,2.15,2.15,0,0,0,1.56,1.51,12.55,12.55,0,0,0,3.85,0,19.64,19.64,0,0,1,4.49,0A6.19,6.19,0,0,1,110,43a4.85,4.85,0,0,1,1.63,2.42,5.29,5.29,0,0,1-.72,4.89A9.24,9.24,0,0,1,106,53.66a10.25,10.25,0,0,1-4.43.54A7.16,7.16,0,0,1,98,52.81a6,6,0,0,1-2.08-2.89l3.34-1.1A3.64,3.64,0,0,0,101.49,51a5.51,5.51,0,0,0,3.64-.1,5.76,5.76,0,0,0,2.79-1.77A2.51,2.51,0,0,0,108.39,46.74Z"/><path d="M114.08,39.73a12.18,12.18,0,0,1,0-5.57,8.92,8.92,0,0,1,2.43-4.35A9,9,0,0,1,121,27.49a8.68,8.68,0,0,1,7.26,1.39,11.2,11.2,0,0,1,4.2,7l.05.24a12.21,12.21,0,0,1,0,5.51A8.7,8.7,0,0,1,130.08,46a9.14,9.14,0,0,1-4.52,2.35,8.65,8.65,0,0,1-7.24-1.39,11.15,11.15,0,0,1-4.19-7Zm3.54-.35a8.8,8.8,0,0,0,2.73,5,5.38,5.38,0,0,0,8.31-1.85,9.62,9.62,0,0,0,.28-6.09,8.8,8.8,0,0,0-2.74-5,5.11,5.11,0,0,0-4.62-1.14,5,5,0,0,0-3.66,2.92A9.53,9.53,0,0,0,117.62,39.38Z"/><path d="M146.28,41.62a5.05,5.05,0,0,0,3.09-1.6,4,4,0,0,0,1.14-3l3.29-.48a6.3,6.3,0,0,1-.72,3.5,8.07,8.07,0,0,1-2.6,3,8.62,8.62,0,0,1-3.79,1.5,8.47,8.47,0,0,1-7-1.81,11.2,11.2,0,0,1-3.55-7.25l-.09-.58a12.58,12.58,0,0,1,.33-5.45,8.45,8.45,0,0,1,2.62-4,9,9,0,0,1,4.64-2,8.25,8.25,0,0,1,6,1.23,7.41,7.41,0,0,1,3.19,5l-3.3.48a4.85,4.85,0,0,0-2-3,4.7,4.7,0,0,0-3.51-.79,4.89,4.89,0,0,0-3.83,2.5,9.06,9.06,0,0,0-.66,5.74l.09.66a8.88,8.88,0,0,0,2.23,5.21A5,5,0,0,0,146.28,41.62Z"/><path d="M155.88,16.75a2.13,2.13,0,0,1,.39-1.49,2,2,0,0,1,1.48-.73,2,2,0,0,1,1.61.43,2.12,2.12,0,0,1,.67,1.39,2.18,2.18,0,0,1-3.49,1.77A2.08,2.08,0,0,1,155.88,16.75Zm6.28,25.55-3.5.34-2-20.48,3.5-.34Z"/><path d="M180.25,41a7.47,7.47,0,0,1-.64-2.13,7.82,7.82,0,0,1-5.67,2.94,7.31,7.31,0,0,1-5.1-1.39,5.54,5.54,0,0,1-2.23-4.22,5.82,5.82,0,0,1,2.1-5.15,11.58,11.58,0,0,1,6.74-2.23l3.42-.23-.11-1.61a4,4,0,0,0-1.29-2.86,4.42,4.42,0,0,0-3.32-.87,5.13,5.13,0,0,0-3.09,1.16,2.82,2.82,0,0,0-1.12,2.38l-3.53.23a4.81,4.81,0,0,1,.9-3,7.47,7.47,0,0,1,2.81-2.47,10.06,10.06,0,0,1,4-1.11,8.15,8.15,0,0,1,5.68,1.41,6.4,6.4,0,0,1,2.41,4.74l.63,9.46a11.72,11.72,0,0,0,1,4.44l0,.31Zm-6-2.28a6.2,6.2,0,0,0,3.07-1.07,5.14,5.14,0,0,0,2-2.36L179,31l-2.76.18c-4.3.29-6.36,1.69-6.2,4.21a3.22,3.22,0,0,0,1.28,2.51A4.22,4.22,0,0,0,174.25,38.67Z"/><path d="M196.7,37.46a5.07,5.07,0,0,0,3.21-1.35,4,4,0,0,0,1.37-3L204.6,33a6.36,6.36,0,0,1-1,3.43,8,8,0,0,1-2.82,2.74,8.73,8.73,0,0,1-3.9,1.21A8.48,8.48,0,0,1,190,38a11.19,11.19,0,0,1-3-7.5l0-.59a12.4,12.4,0,0,1,.75-5.4,8.46,8.46,0,0,1,2.93-3.83A9,9,0,0,1,195.48,19a8.26,8.26,0,0,1,5.88,1.7,7.45,7.45,0,0,1,2.79,5.21l-3.33.22A4.84,4.84,0,0,0,199.1,23a4.7,4.7,0,0,0-3.43-1.06,4.93,4.93,0,0,0-4,2.19,9,9,0,0,0-1.11,5.67l0,.66a8.88,8.88,0,0,0,1.82,5.37A4.92,4.92,0,0,0,196.7,37.46Zm.74,2.62-.17,1a3.09,3.09,0,0,1,3.12,3.1,3.37,3.37,0,0,1-1.33,3,7.26,7.26,0,0,1-4.16,1.35l-.27-2a4.6,4.6,0,0,0,2.3-.64,1.52,1.52,0,0,0,.73-1.44,1.35,1.35,0,0,0-.68-1.19,6.09,6.09,0,0,0-2.51-.41l.44-2.59Z"/><path d="M222.33,37.6a7.52,7.52,0,0,1-.74-2.09,7.91,7.91,0,0,1-5.52,3.21,7.33,7.33,0,0,1-5.16-1.13,5.57,5.57,0,0,1-2.44-4.11,5.81,5.81,0,0,1,1.85-5.25,11.52,11.52,0,0,1,6.62-2.56l3.4-.4-.19-1.6a4,4,0,0,0-1.43-2.79,4.43,4.43,0,0,0-3.36-.71,5.09,5.09,0,0,0-3,1.31,2.82,2.82,0,0,0-1,2.43l-3.51.41a4.85,4.85,0,0,1,.74-3.08,7.47,7.47,0,0,1,2.69-2.6,9.85,9.85,0,0,1,4-1.31A8.12,8.12,0,0,1,221,18.45a6.4,6.4,0,0,1,2.64,4.62l1.1,9.41A11.51,11.51,0,0,0,226,36.87l0,.31Zm-.89-28.69a4.7,4.7,0,0,1-.78,3.44,3.79,3.79,0,0,1-2.75,1.6,4.32,4.32,0,0,1-1.36,0,7.08,7.08,0,0,1-1.58-.6,6.21,6.21,0,0,0-1.4-.55,3.3,3.3,0,0,0-.95,0,1.71,1.71,0,0,0-1.25.75,2.19,2.19,0,0,0-.38,1.59l-2.35.14a5,5,0,0,1,.75-3.48,3.69,3.69,0,0,1,2.74-1.66,3.49,3.49,0,0,1,1.22.05,8.23,8.23,0,0,1,1.52.57,8.48,8.48,0,0,0,1.47.55,3,3,0,0,0,1.09.05,1.69,1.69,0,0,0,1.27-.8A2.29,2.29,0,0,0,219.07,9Zm-5.22,26.71a6.23,6.23,0,0,0,3-1.22,5.18,5.18,0,0,0,1.88-2.46l-.49-4.19-2.74.32c-4.28.5-6.28,2-6,4.51A3.19,3.19,0,0,0,213.3,35,4.27,4.27,0,0,0,216.22,35.62Z"/><path d="M229.89,24.35a12.11,12.11,0,0,1,1-5.48A8.87,8.87,0,0,1,234.06,15a9,9,0,0,1,4.79-1.48,8.7,8.7,0,0,1,6.9,2.66,11.23,11.23,0,0,1,2.87,7.65v.24a12.24,12.24,0,0,1-1,5.43,8.77,8.77,0,0,1-3.15,3.84,9.07,9.07,0,0,1-4.87,1.5,8.64,8.64,0,0,1-6.88-2.66,11.12,11.12,0,0,1-2.87-7.61Zm3.55.29a8.76,8.76,0,0,0,1.79,5.43,5.38,5.38,0,0,0,8.5-.33,9.65,9.65,0,0,0,1.37-5.94,8.72,8.72,0,0,0-1.81-5.42A5.09,5.09,0,0,0,239,16.43a5,5,0,0,0-4.12,2.22A9.55,9.55,0,0,0,233.44,24.64Z"/><path d="M265.22,3.86,278,24.6,283.06.8l4.67-.8,4.69,27.29-3.6.62L287,17.28,285.36,5.75l-5.17,23.64-2.75.47L264.71,9.35,267,20.71l1.82,10.63-3.6.62-4.68-27.3Z"/><path d="M295.61,16.05a12.22,12.22,0,0,1,.39-5.56,8.93,8.93,0,0,1,2.74-4.16,9,9,0,0,1,4.6-2,8.69,8.69,0,0,1,7.15,1.9,11.19,11.19,0,0,1,3.68,7.29l0,.24a12.27,12.27,0,0,1-.36,5.51,8.75,8.75,0,0,1-2.73,4.15,9.06,9.06,0,0,1-4.67,2,8.67,8.67,0,0,1-7.13-1.9,11.15,11.15,0,0,1-3.67-7.25Zm3.56-.1a8.83,8.83,0,0,0,2.36,5.21A5.38,5.38,0,0,0,310,19.91a9.65,9.65,0,0,0,.72-6.05,8.81,8.81,0,0,0-2.38-5.2,5.14,5.14,0,0,0-4.53-1.47,5,5,0,0,0-3.86,2.66A9.51,9.51,0,0,0,299.17,16Z"/><path d="M328,5.11a10.09,10.09,0,0,0-1.73,0,4.63,4.63,0,0,0-4.41,3.36L323.21,23l-3.51.31-1.85-20.5,3.41-.3.28,2.36a5.48,5.48,0,0,1,4.63-3.19,3.53,3.53,0,0,1,1.58.13Z"/><path d="M340.2,19.64a5.07,5.07,0,0,0,3.27-1.19A4,4,0,0,0,345,15.58l3.33-.05a6.24,6.24,0,0,1-1.17,3.38,7.94,7.94,0,0,1-3,2.59,8.65,8.65,0,0,1-3.95,1,8.46,8.46,0,0,1-6.72-2.71,11.15,11.15,0,0,1-2.59-7.64v-.59a12.28,12.28,0,0,1,1-5.36,8.45,8.45,0,0,1,3.11-3.68,9,9,0,0,1,4.86-1.36,8.24,8.24,0,0,1,5.78,2,7.4,7.4,0,0,1,2.52,5.35l-3.32.05a4.84,4.84,0,0,0-1.56-3.26A4.73,4.73,0,0,0,340,4.06a5,5,0,0,0-4.13,2,9.12,9.12,0,0,0-1.39,5.6v.67A8.91,8.91,0,0,0,336,17.78,5,5,0,0,0,340.2,19.64Z"/><path d="M360.23,23.19a9,9,0,0,1-6.57-3.29,10.18,10.18,0,0,1-2-7.54l.05-.64a12.38,12.38,0,0,1,1.6-5.36,9.13,9.13,0,0,1,3.57-3.49,8.25,8.25,0,0,1,4.65-1,7.7,7.7,0,0,1,6,3.14c1.34,1.87,1.88,4.45,1.61,7.72L369,14.2l-13.89-1.12a7.31,7.31,0,0,0,1.38,5,5.56,5.56,0,0,0,4.16,2.22,6.09,6.09,0,0,0,3.21-.51A7.79,7.79,0,0,0,366.27,18l2,1.84A8.65,8.65,0,0,1,360.23,23.19Zm1-18.43A4.71,4.71,0,0,0,357.59,6a7.44,7.44,0,0,0-2.13,4.19l10.27.83,0-.27a6.73,6.73,0,0,0-1.1-4.26A4.45,4.45,0,0,0,361.28,4.76Z"/><path d="M372.8,13.56a12.05,12.05,0,0,1,3.78-7,7.66,7.66,0,0,1,11.55,2.29l.64-2.2,3.15.67-4.21,19.64a8.38,8.38,0,0,1-3.63,5.66,8.74,8.74,0,0,1-6.71.92,10.71,10.71,0,0,1-4.06-1.84,7.57,7.57,0,0,1-2.63-3.23l2.23-1.68a6.87,6.87,0,0,0,4.82,3.89,5.35,5.35,0,0,0,4.22-.58,5.51,5.51,0,0,0,2.26-3.67l.37-1.73a7.25,7.25,0,0,1-6.15,1.17,7,7,0,0,1-5.11-4.07Q371.75,18.47,372.8,13.56Zm3.37,1.13a9.27,9.27,0,0,0,.25,5.64,4.65,4.65,0,0,0,3.49,2.78,5.16,5.16,0,0,0,5.42-1.93l2-9.19a5.21,5.21,0,0,0-4.12-3.9,4.7,4.7,0,0,0-4.34,1.12A10.05,10.05,0,0,0,376.17,14.69Z"/><path d="M394.56,18.46a12.32,12.32,0,0,1,3-4.71,8.92,8.92,0,0,1,4.39-2.37,9,9,0,0,1,5,.42,8.65,8.65,0,0,1,5.39,5.05,11.16,11.16,0,0,1-.2,8.16l-.08.24a12.36,12.36,0,0,1-2.92,4.67,8.66,8.66,0,0,1-4.36,2.37,9.11,9.11,0,0,1-5.08-.42,8.66,8.66,0,0,1-5.38-5.05,11.13,11.13,0,0,1,.19-8.13Zm3.18,1.6a8.89,8.89,0,0,0-.38,5.71,5.38,5.38,0,0,0,8,2.88,9.64,9.64,0,0,0,3.49-5,8.76,8.76,0,0,0,.36-5.7,5.33,5.33,0,0,0-8-2.92A9.55,9.55,0,0,0,397.74,20.06Z"/><path d="M424.94,37a2.59,2.59,0,0,0,.08-2.46,10.37,10.37,0,0,0-2.68-2.95,17.57,17.57,0,0,1-3.12-3.19,6,6,0,0,1-1.17-2.76,4.58,4.58,0,0,1,.56-2.67,5.36,5.36,0,0,1,3.89-2.79,8.35,8.35,0,0,1,5.65,1,8.55,8.55,0,0,1,4.18,4.25,5.72,5.72,0,0,1-.22,5.1L429,28.87a3.16,3.16,0,0,0,.07-2.77,4.59,4.59,0,0,0-2.24-2.37,4.91,4.91,0,0,0-3.05-.66,2.65,2.65,0,0,0-2,1.44,2.11,2.11,0,0,0,0,2.17,12.24,12.24,0,0,0,2.64,2.78,18.84,18.84,0,0,1,3.13,3.24,6.27,6.27,0,0,1,1.23,2.87,4.87,4.87,0,0,1-.61,2.85,5.27,5.27,0,0,1-4,2.89,9.24,9.24,0,0,1-5.84-1.2,10.34,10.34,0,0,1-3.47-2.81,7,7,0,0,1-1.49-3.55,5.84,5.84,0,0,1,.63-3.5l3.11,1.64a3.64,3.64,0,0,0-.05,3.14,5.5,5.5,0,0,0,2.61,2.54,5.66,5.66,0,0,0,3.21.78A2.47,2.47,0,0,0,424.94,37Z"/><path d="M442.62,56.33a9,9,0,0,1-3.52-6.45,10.18,10.18,0,0,1,2.64-7.34l.41-.5a12.35,12.35,0,0,1,4.37-3.49,9.15,9.15,0,0,1,4.92-.83,8.19,8.19,0,0,1,4.38,1.84,7.68,7.68,0,0,1,3.14,6q0,3.46-3.08,7.27L455,54l-10.77-8.85A7.33,7.33,0,0,0,442.43,50a5.58,5.58,0,0,0,2.15,4.19,6.23,6.23,0,0,0,2.93,1.42,8.18,8.18,0,0,0,3-.12l.59,2.65A8.61,8.61,0,0,1,442.62,56.33ZM454,41.79a4.73,4.73,0,0,0-3.75-1.07A7.54,7.54,0,0,0,446.1,43l8,6.54.16-.21a6.61,6.61,0,0,0,1.52-4.12A4.44,4.44,0,0,0,454,41.79Z"/><path d="M469.3,52.05l-1.68,1.55a7.61,7.61,0,0,1,6,2.92q2.79,3.28,1.29,6.62a7.77,7.77,0,0,1,3.55.48A7.86,7.86,0,0,1,481.67,66q4.4,5.16-1,9.89l-10.5,8.94-2.28-2.68,10.34-8.8a4.79,4.79,0,0,0,1.85-2.91,4.44,4.44,0,0,0-1.36-3.29,4.58,4.58,0,0,0-6.37-.82L462,75.18l-2.29-2.7,10.27-8.74q3.42-2.91.57-6.25a4.71,4.71,0,0,0-5.32-1.7l-11.44,9.74-2.28-2.68,15.67-13.34Z"/><path d="M490.61,107.32,485.41,97l-7.65.92-1.69-3.37,29.5-3L507,94.41l-20,21.87-1.68-3.35Zm-2-10.72,4.22,8.42,9.46-10Z"/><path d="M490.48,127l-1,.12a3.08,3.08,0,0,1-2.12,3.85,3.41,3.41,0,0,1-3.26-.45,7.2,7.2,0,0,1-2.44-3.63l1.87-.81a4.58,4.58,0,0,0,1.25,2,1.55,1.55,0,0,0,1.59.32,1.4,1.4,0,0,0,1-1,6.21,6.21,0,0,0-.3-2.52l2.6-.29Zm2.31-1.43a5.07,5.07,0,0,0,2.18,2.71,4.06,4.06,0,0,0,3.22.51l1.12,3.13a6.41,6.41,0,0,1-3.58,0,8.07,8.07,0,0,1-3.41-2,8.65,8.65,0,0,1-2.23-3.42,8.44,8.44,0,0,1,.39-7.24,11.17,11.17,0,0,1,6.38-4.92l.56-.2a12.4,12.4,0,0,1,5.4-.76,8.32,8.32,0,0,1,4.49,1.76,9,9,0,0,1,2.86,4.15,8.24,8.24,0,0,1,0,6.12,7.43,7.43,0,0,1-4.24,4.11l-1.13-3.13a4.84,4.84,0,0,0,2.58-2.53,4.69,4.69,0,0,0,.08-3.59,4.91,4.91,0,0,0-3.22-3.26,9,9,0,0,0-5.75.49l-.63.22a8.91,8.91,0,0,0-4.66,3.23A5,5,0,0,0,492.79,125.56Z"/><path d="M497.15,149.61a7,7,0,0,1,2-1,7.89,7.89,0,0,1-3.88-5.08,7.26,7.26,0,0,1,.48-5.26,5.55,5.55,0,0,1,3.77-2.94,5.82,5.82,0,0,1,5.43,1.18,11.45,11.45,0,0,1,3.37,6.24l.83,3.33,1.57-.39a3.92,3.92,0,0,0,2.58-1.78,4.4,4.4,0,0,0,.29-3.42,5.19,5.19,0,0,0-1.69-2.83,2.82,2.82,0,0,0-2.54-.69l-.84-3.43a4.82,4.82,0,0,1,3.15.35,7.46,7.46,0,0,1,2.92,2.33,10.06,10.06,0,0,1,1.8,3.8,8.1,8.1,0,0,1-.39,5.83,6.43,6.43,0,0,1-4.26,3.21l-9.19,2.27a11.57,11.57,0,0,0-4.2,1.79l-.3.07Zm1.2-6.32a6.16,6.16,0,0,0,1.58,2.85,5.2,5.2,0,0,0,2.68,1.55l4.1-1-.66-2.68q-1.56-6.28-5.23-5.37a3.21,3.21,0,0,0-2.25,1.69A4.25,4.25,0,0,0,498.35,143.29Zm27.15,1.82a4.73,4.73,0,0,1-3.51-.34,3.81,3.81,0,0,1-1.94-2.53,4.43,4.43,0,0,1-.14-1.35,7.43,7.43,0,0,1,.4-1.64,6.4,6.4,0,0,0,.37-1.46,3.27,3.27,0,0,0-.1-.95,1.79,1.79,0,0,0-.9-1.15,2.18,2.18,0,0,0-1.62-.16l-.44-2.33a5,5,0,0,1,3.55.31,3.69,3.69,0,0,1,2,2.52,3.65,3.65,0,0,1,.1,1.21,9,9,0,0,1-.37,1.58,8.44,8.44,0,0,0-.37,1.53,3.39,3.39,0,0,0,.09,1.08,1.71,1.71,0,0,0,1,1.17,2.23,2.23,0,0,0,1.59.16Z"/><path d="M509.05,154.84a12.35,12.35,0,0,1,5.56.41,8.77,8.77,0,0,1,6.13,7.36,8.67,8.67,0,0,1-1.92,7.14,11.17,11.17,0,0,1-7.3,3.66l-.25,0a12.38,12.38,0,0,1-5.5-.38,8.77,8.77,0,0,1-4.14-2.74,9.12,9.12,0,0,1-2-4.68,8.65,8.65,0,0,1,1.93-7.12,11.09,11.09,0,0,1,7.26-3.65Zm.09,3.56a8.76,8.76,0,0,0-5.22,2.35,5.37,5.37,0,0,0,1.22,8.42,9.7,9.7,0,0,0,6.05.74,8.8,8.8,0,0,0,5.21-2.37,5.34,5.34,0,0,0-1.16-8.39A9.57,9.57,0,0,0,509.14,158.4Z"/></g></g></svg>