<svg xmlns="http://www.w3.org/2000/svg" viewBox="0 0 515.73 531.18"><defs><style>.cls-1{fill:#231f20;}</style></defs><g id="Layer_2" data-name="Layer 2"><g id="Layer_4" data-name="Layer 4"><path class="cls-1" d="M237.05,511.18c-90.33,0-167.93-55.59-200.38-134.35a35.55,35.55,0,0,1-17.78,9.65,236.88,236.88,0,0,0,436.32,0,35.53,35.53,0,0,1-17.78-9.64C405,455.6,327.38,511.18,237.05,511.18Z"/><path class="cls-1" d="M20.45,292.16c1.28-118.34,98-214.22,216.6-214.22s215.32,95.88,216.6,214.22c7.21,6.71,13.88,13.32,19.44,19q.59-8.25.58-16.59A236.61,236.61,0,0,0,69.74,127.25,235.07,235.07,0,0,0,.43,294.56q0,8.34.58,16.59C6.57,305.48,13.24,298.87,20.45,292.16Z"/><path class="cls-1" d="M237.05,150.52A144.28,144.28,0,0,0,101.82,245h.43a50.45,50.45,0,0,1,19.48,3.93,124,124,0,0,1,230.64,0A50.45,50.45,0,0,1,371.85,245h.43A144.28,144.28,0,0,0,237.05,150.52Z"/><path class="cls-1" d="M237.05,438.6a144.08,144.08,0,0,0,122.71-68.69,59.41,59.41,0,0,1-40.34,17.32,123.83,123.83,0,0,1-164.74,0,59.41,59.41,0,0,1-40.34-17.32A144.08,144.08,0,0,0,237.05,438.6Z"/><path class="cls-1" d="M424.49,267.4c-13.2-91.61-92.23-162.23-187.44-162.23S62.81,175.79,49.61,267.4A151.55,151.55,0,0,1,72.9,252.68c18.69-73.21,85.2-127.51,164.15-127.51s145.46,54.3,164.15,127.51A151.55,151.55,0,0,1,424.49,267.4Z"/><path class="cls-1" d="M71,342.25c-4.74,4.37-9.28,8.74-13.39,12.81C82.86,429.91,153.77,484,237.05,484s154.17-54,179.47-128.87c-4.15-4.13-8.73-8.54-13.5-12.93-.92-.85-1.82-1.67-2.69-2.45C380.53,411.26,314.83,464,237.05,464S93.57,411.25,73.77,339.69Z"/><path class="cls-1" d="M60.92,95.18l-2.68-7.44,9.17-7.6,6.84,4,3-2.46-26.51-15-2.53,2.09,9.77,28.83ZM52.39,71.33,64.6,78.49l-7.45,6.16Z"/><path class="cls-1" d="M72.78,69.5a6.2,6.2,0,0,0,3.07.24,17.93,17.93,0,0,0,4.38-1.32,10.82,10.82,0,0,1,4-1,2.67,2.67,0,0,1,2.2,1.24,2.56,2.56,0,0,1,.25,2.53,5.87,5.87,0,0,1-2.23,2.56,5.74,5.74,0,0,1-3.55,1.17A3.74,3.74,0,0,1,78,73.33l-3,2.06a6.07,6.07,0,0,0,2.89,2.23,7.24,7.24,0,0,0,3.94.32,10.53,10.53,0,0,0,4.21-1.82,9.48,9.48,0,0,0,3.85-4.75,5.39,5.39,0,0,0-.72-5,5,5,0,0,0-2.31-1.9,6.37,6.37,0,0,0-3.2-.24,19.29,19.29,0,0,0-4.42,1.31,13,13,0,0,1-3.8,1.09,2.21,2.21,0,0,1-2-1,2.74,2.74,0,0,1-.36-2.48,4.87,4.87,0,0,1,2-2.47,4.69,4.69,0,0,1,3.22-.93,3.29,3.29,0,0,1,2.49,1.39l3-2.07a5.9,5.9,0,0,0-4.54-2.63,8.91,8.91,0,0,0-5.85,1.8,8.6,8.6,0,0,0-3.59,4.68,5.5,5.5,0,0,0,.7,4.86A4.72,4.72,0,0,0,72.78,69.5Z"/><path class="cls-1" d="M90.24,57.72a6.21,6.21,0,0,0,3,.48,18.69,18.69,0,0,0,4.47-1,10.64,10.64,0,0,1,4-.74,2.67,2.67,0,0,1,2.11,1.4,2.55,2.55,0,0,1,.05,2.54,5.85,5.85,0,0,1-2.42,2.39,5.61,5.61,0,0,1-3.63.89,3.73,3.73,0,0,1-2.71-1.75l-3.12,1.83a6.06,6.06,0,0,0,2.72,2.45,7.38,7.38,0,0,0,3.91.62,10.74,10.74,0,0,0,4.33-1.5,9.54,9.54,0,0,0,4.2-4.45,5.4,5.4,0,0,0-.34-5.06,5.06,5.06,0,0,0-2.16-2.08,6.4,6.4,0,0,0-3.17-.48,19.55,19.55,0,0,0-4.52,1,12.62,12.62,0,0,1-3.86.8,2.2,2.2,0,0,1-1.9-1.18,2.73,2.73,0,0,1-.17-2.5,5,5,0,0,1,2.22-2.3,4.72,4.72,0,0,1,3.28-.68A3.25,3.25,0,0,1,99,49.94l3.13-1.84a5.9,5.9,0,0,0-4.33-3,8.87,8.87,0,0,0-6,1.35,8.61,8.61,0,0,0-3.93,4.39,5.45,5.45,0,0,0,.33,4.9A4.67,4.67,0,0,0,90.24,57.72Z"/><path class="cls-1" d="M108.08,49.84a11.41,11.41,0,0,0,5.84,6,8.88,8.88,0,0,0,7.57-.34,9.43,9.43,0,0,0,4-3.43,9,9,0,0,0,1.38-4.91,12.76,12.76,0,0,0-1.35-5.5l-.11-.23a11.48,11.48,0,0,0-5.87-6,8.91,8.91,0,0,0-7.58.35A9.21,9.21,0,0,0,108,39.13a9,9,0,0,0-1.39,4.93A12.44,12.44,0,0,0,108,49.62Zm2.16-7.62a5.21,5.21,0,0,1,3-3.8,5.28,5.28,0,0,1,4.89,0A9.08,9.08,0,0,1,122,42.81,9.83,9.83,0,0,1,123.2,49a5.17,5.17,0,0,1-3,3.85,5.22,5.22,0,0,1-4.86,0,9,9,0,0,1-3.93-4.37A9.87,9.87,0,0,1,110.24,42.22Z"/><path class="cls-1" d="M129,40.06a11.51,11.51,0,0,0,5.23,6.43,8.72,8.72,0,0,0,7.44.2,9,9,0,0,0,3.44-2.39,8.2,8.2,0,0,0,1.92-3.55,6.61,6.61,0,0,0-.08-3.67l-3.19,1.23a4.13,4.13,0,0,1-.43,3.31,5.25,5.25,0,0,1-2.73,2.32,5.07,5.07,0,0,1-4.72-.29,9.1,9.1,0,0,1-3.43-4.7l-.25-.63a9.3,9.3,0,0,1-.67-5.89,5.08,5.08,0,0,1,3.27-3.4,4.86,4.86,0,0,1,3.69,0,5,5,0,0,1,2.66,2.58l3.19-1.23A7.61,7.61,0,0,0,140,26.11a8.5,8.5,0,0,0-6.28.16,9.21,9.21,0,0,0-4.19,3.05A8.6,8.6,0,0,0,127.89,34a12.87,12.87,0,0,0,.93,5.53Z"/><path class="cls-1" d="M145.66,18a2,2,0,0,0,1.69.06A2.07,2.07,0,0,0,148.7,17a2.28,2.28,0,0,0-.91-2.8,2,2,0,0,0-1.71-.08,2,2,0,0,0-1.33,1.06,2.1,2.1,0,0,0-.05,1.58A2.08,2.08,0,0,0,145.66,18Z"/><polygon class="cls-1" points="153.22 42.14 156.66 41.03 150.14 20.93 146.7 22.04 153.22 42.14"/><path class="cls-1" d="M161.26,23.69a2.9,2.9,0,0,1,.67-2.62,5.22,5.22,0,0,1,2.89-1.76,4.57,4.57,0,0,1,3.51.24,4.05,4.05,0,0,1,1.86,2.63l.42,1.61-3.4.89q-4.41,1.16-6.37,3.55a6,6,0,0,0-1.13,5.6,5.74,5.74,0,0,0,3.07,3.83,7.44,7.44,0,0,0,5.4.41,8,8,0,0,0,5.16-4,7.53,7.53,0,0,0,1.06,2l3.66-.95-.08-.31a12,12,0,0,1-1.88-4.29l-2.46-9.41a6.6,6.6,0,0,0-3.35-4.32,8.33,8.33,0,0,0-6-.32,10.17,10.17,0,0,0-3.87,1.9,7.6,7.6,0,0,0-2.36,3,5,5,0,0,0-.32,3.24Zm11.09,6.77a5.3,5.3,0,0,1-1.55,2.77,6.34,6.34,0,0,1-2.9,1.66,4.34,4.34,0,0,1-3.06-.19,3.24,3.24,0,0,1-1.76-2.28q-1-3.77,5.44-5.44l2.74-.71Z"/><path class="cls-1" d="M179.62,24.13c.59,3.29,1.89,5.72,3.9,7.31a8.26,8.26,0,0,0,5.24,1.82l-.15,2.64a6.37,6.37,0,0,1,2.6.13,1.42,1.42,0,0,1,.84,1.14,1.59,1.59,0,0,1-.59,1.56,4.76,4.76,0,0,1-2.26.92l.5,2a7.5,7.5,0,0,0,4.09-1.85,3.46,3.46,0,0,0,1-3.23q-.5-2.81-3.53-2.8l0-.84a9,9,0,0,0,3.31-1.56,8.33,8.33,0,0,0,2.57-3.12,6.57,6.57,0,0,0,.62-3.62l-3.37.6a4.09,4.09,0,0,1-1.06,3.16,5.21,5.21,0,0,1-3.12,1.75A5.05,5.05,0,0,1,185.69,29a9,9,0,0,1-2.47-5.27L183.1,23a9.32,9.32,0,0,1,.48-5.91,5,5,0,0,1,3.85-2.7,4.85,4.85,0,0,1,3.63.69,5,5,0,0,1,2.12,3l3.36-.6a7.62,7.62,0,0,0-3.44-5,8.51,8.51,0,0,0-6.19-1.06,9.26,9.26,0,0,0-4.7,2.19,8.66,8.66,0,0,0-2.54,4.25,12.47,12.47,0,0,0-.15,5.6Z"/><path class="cls-1" d="M204.43,15.23a2.89,2.89,0,0,1,1.07-2.48,5.21,5.21,0,0,1,3.13-1.29,4.5,4.5,0,0,1,3.44.79,4,4,0,0,1,1.42,2.89l.16,1.65-3.49.34c-3,.3-5.31,1.14-6.85,2.52a5.93,5.93,0,0,0-2,5.34,5.67,5.67,0,0,0,2.43,4.27A7.42,7.42,0,0,0,209,30.51a8.06,8.06,0,0,0,5.73-3.19,7.56,7.56,0,0,0,.73,2.16l3.77-.37,0-.31a11.94,11.94,0,0,1-1.2-4.53l-1-9.68a6.61,6.61,0,0,0-2.63-4.8,8.41,8.41,0,0,0-5.88-1.25,10.15,10.15,0,0,0-4.12,1.27,7.74,7.74,0,0,0-2.81,2.62,5,5,0,0,0-.81,3.15Zm9.9,8.42a5.3,5.3,0,0,1-2,2.49,6.34,6.34,0,0,1-3.12,1.19,4.33,4.33,0,0,1-3-.66,3.31,3.31,0,0,1-1.39-2.54c-.25-2.57,1.82-4.08,6.23-4.52l2.82-.28Z"/><path class="cls-1" d="M204.24,6.16a2.26,2.26,0,0,1,.41-1.62,1.78,1.78,0,0,1,1.3-.75,3.89,3.89,0,0,1,1,0,7.11,7.11,0,0,1,1.43.6,7.22,7.22,0,0,0,1.61.64,4.44,4.44,0,0,0,1.39.06,3.9,3.9,0,0,0,2.86-1.6A4.85,4.85,0,0,0,215.08,0h-2.44a2.3,2.3,0,0,1-.4,1.59,1.75,1.75,0,0,1-1.32.8,3.17,3.17,0,0,1-1.12-.07,8.12,8.12,0,0,1-1.5-.6,10.13,10.13,0,0,0-1.55-.61,3.6,3.6,0,0,0-1.24-.07,3.79,3.79,0,0,0-2.85,1.65,5.07,5.07,0,0,0-.84,3.56Z"/><path class="cls-1" d="M232.28,29.1a9.33,9.33,0,0,0,5-1.46,9,9,0,0,0,3.31-3.87,12.53,12.53,0,0,0,1.08-5.56V18a11.53,11.53,0,0,0-2.81-7.9,8.91,8.91,0,0,0-7-2.86,9.26,9.26,0,0,0-5,1.43,9.08,9.08,0,0,0-3.33,3.89,12.52,12.52,0,0,0-1.12,5.61v.25a11.46,11.46,0,0,0,2.81,7.86A8.89,8.89,0,0,0,232.28,29.1Zm-4.65-16.74a5.49,5.49,0,0,1,8.7-.12,9,9,0,0,1,1.75,5.6,9.87,9.87,0,0,1-1.51,6.07,5.53,5.53,0,0,1-8.74.19,9,9,0,0,1-1.73-5.62A9.78,9.78,0,0,1,227.63,12.36Z"/><polygon class="cls-1" points="261.03 18.42 262.12 6.57 268.55 30.51 271.4 30.86 283.49 9.15 281.68 20.97 280.32 31.96 284.04 32.42 287.53 4.2 282.7 3.6 270.63 25.49 264.25 1.32 259.44 0.73 255.95 28.95 259.67 29.41 261.03 18.42"/><path class="cls-1" d="M297.61,36a9.33,9.33,0,0,0,5.23-.19,9,9,0,0,0,4.16-3,12.6,12.6,0,0,0,2.41-5.12l.06-.25a11.51,11.51,0,0,0-.8-8.35,8.91,8.91,0,0,0-6.12-4.5,9.21,9.21,0,0,0-5.14.19,9.1,9.1,0,0,0-4.18,3A12.49,12.49,0,0,0,290.77,23l-.06.24a11.46,11.46,0,0,0,.8,8.31A8.91,8.91,0,0,0,297.61,36Zm-3.4-11.81a9.79,9.79,0,0,1,3-5.56,5.19,5.19,0,0,1,4.69-1.09,5.25,5.25,0,0,1,3.78,3.09A9.12,9.12,0,0,1,306,26.5,9.93,9.93,0,0,1,303,32a5.53,5.53,0,0,1-8.51-2A9,9,0,0,1,294.21,24.19Z"/><path class="cls-1" d="M318.78,25.75a4.76,4.76,0,0,1,5.5-1.49,10.07,10.07,0,0,1,1.66.65l1-3.22a3.68,3.68,0,0,0-1.45-.72,5.61,5.61,0,0,0-5.65,1.23l.66-2.35-3.37-1L310.94,39l3.46,1.05Z"/><path class="cls-1" d="M325.9,32.75q-1.75,4.68-.38,8.27a9.41,9.41,0,0,0,9.57,5.63,8.28,8.28,0,0,0,3.8-1.37,6.59,6.59,0,0,0,2.39-2.8l-3.2-1.2a4.14,4.14,0,0,1-2.53,2.18,5.25,5.25,0,0,1-3.58-.09A5.09,5.09,0,0,1,328.64,40a9.09,9.09,0,0,1,.57-5.8l.24-.64a9.36,9.36,0,0,1,3.43-4.84,5,5,0,0,1,4.69-.35,4.8,4.8,0,0,1,2.76,2.44,5,5,0,0,1,.28,3.7l3.2,1.2a7.65,7.65,0,0,0-.41-6.06,8.46,8.46,0,0,0-4.79-4.06,9.24,9.24,0,0,0-5.16-.52,8.64,8.64,0,0,0-4.35,2.35,12.78,12.78,0,0,0-3,4.74Z"/><path class="cls-1" d="M350,54.2a8.92,8.92,0,0,0,8.95-.33l-1.28-2.49a8.32,8.32,0,0,1-3,.89,6.28,6.28,0,0,1-3.27-.66A5.73,5.73,0,0,1,348.19,48a7.45,7.45,0,0,1,.48-5.35l13,6,.64-1.36c1.42-3.06,1.83-5.73,1.21-8a7.89,7.89,0,0,0-4.66-5.17,8.4,8.4,0,0,0-4.83-.71,9.34,9.34,0,0,0-4.67,2.08,12.7,12.7,0,0,0-3.47,4.58l-.28.6a10.5,10.5,0,0,0-.75,8A9.25,9.25,0,0,0,350,54.2Zm3.6-17.47a4.82,4.82,0,0,1,4,.11,4.55,4.55,0,0,1,2.62,2.89,6.91,6.91,0,0,1-.46,4.49l-.12.25L350,40A7.67,7.67,0,0,1,353.58,36.73Z"/><path class="cls-1" d="M363.36,57.47A7.18,7.18,0,0,0,367.1,63a7.39,7.39,0,0,0,6.38.75l-.89,1.58a5.73,5.73,0,0,1-3.35,2.91,5.55,5.55,0,0,1-4.31-.74,7.07,7.07,0,0,1-3.52-5.31l-2.7,1a7.6,7.6,0,0,0,1.58,4,11,11,0,0,0,3.4,3.06,9,9,0,0,0,6.85,1.17A8.59,8.59,0,0,0,375.85,67L386,49l-2.87-1.63-1.31,2a7.88,7.88,0,0,0-10.61-5.81,12.46,12.46,0,0,0-5.87,5.7C363.69,52.24,363,55,363.36,57.47Zm5-6.07c1.33-2.33,2.75-3.84,4.29-4.54a4.8,4.8,0,0,1,4.6.25,5.34,5.34,0,0,1,2.83,5.09l-4.76,8.39a5.29,5.29,0,0,1-5.9.22,4.76,4.76,0,0,1-2.56-3.8A9.45,9.45,0,0,1,368.34,51.4Z"/><path class="cls-1" d="M384.89,60.78a11.47,11.47,0,0,0-2.26,8,8.86,8.86,0,0,0,4.06,6.39,9.27,9.27,0,0,0,4.94,1.72,9,9,0,0,0,4.95-1.24,12.67,12.67,0,0,0,4.1-3.91l.14-.2a11.52,11.52,0,0,0,2.29-8.07A9,9,0,0,0,399,57.1a9.29,9.29,0,0,0-4.87-1.69,9.12,9.12,0,0,0-5,1.24A12.47,12.47,0,0,0,385,60.57Zm2.9,2.2a9.89,9.89,0,0,1,4.8-4.11,5.48,5.48,0,0,1,7.16,4.94,9,9,0,0,1-1.81,5.58,10,10,0,0,1-4.75,4.08A5.53,5.53,0,0,1,386,68.56,9,9,0,0,1,387.79,63Z"/><path class="cls-1" d="M401.41,77.15a6,6,0,0,0-1.33,3.41,7.22,7.22,0,0,0,.8,3.87A10.64,10.64,0,0,0,403.81,88a9.5,9.5,0,0,0,5.65,2.36,5.4,5.4,0,0,0,4.61-2.11,4.88,4.88,0,0,0,1.18-2.75,6.35,6.35,0,0,0-.67-3.14,19.52,19.52,0,0,0-2.5-3.88A12.47,12.47,0,0,1,410,75.1a2.19,2.19,0,0,1,.43-2.19,2.7,2.7,0,0,1,2.27-1,5,5,0,0,1,2.95,1.27A4.72,4.72,0,0,1,417.41,76a3.24,3.24,0,0,1-.62,2.78L419.61,81a5.86,5.86,0,0,0,1.24-5.09,8.86,8.86,0,0,0-3.37-5.11,8.6,8.6,0,0,0-5.5-2.13,5.53,5.53,0,0,0-4.47,2,4.66,4.66,0,0,0-1.09,2.59,6.25,6.25,0,0,0,.63,3,18.29,18.29,0,0,0,2.5,3.83,10.55,10.55,0,0,1,2.12,3.5,2.63,2.63,0,0,1-.57,2.47,2.54,2.54,0,0,1-2.36.94,5.77,5.77,0,0,1-3.08-1.42,5.64,5.64,0,0,1-2.12-3.08,3.72,3.72,0,0,1,.68-3.15Z"/><path class="cls-1" d="M435.06,111.4l-.33-2.78a8.27,8.27,0,0,1-3.11-.2,6.22,6.22,0,0,1-2.83-1.76,5.73,5.73,0,0,1-1.76-4.51,7.48,7.48,0,0,1,2.31-4.85l10.06,10.19,1.07-1.06c2.4-2.37,3.71-4.74,3.92-7.09a7.92,7.92,0,0,0-2.57-6.47,8.45,8.45,0,0,0-4.28-2.34,9.34,9.34,0,0,0-5.11.33A12.77,12.77,0,0,0,427.59,94l-.47.47a10.49,10.49,0,0,0-3.48,7.22,9.28,9.28,0,0,0,2.91,7A8.89,8.89,0,0,0,435.06,111.4ZM436,93.47A4.8,4.8,0,0,1,439.71,95a4.53,4.53,0,0,1,1.45,3.62,6.88,6.88,0,0,1-2,4.06l-.2.19-7.44-7.53A7.74,7.74,0,0,1,436,93.47Z"/><path class="cls-1" d="M437.42,119.4l12-9.66a4.84,4.84,0,0,1,5.41,1.89q2.82,3.53-.77,6.41l-10.79,8.67,2.27,2.83,10.94-8.78a4.83,4.83,0,0,1,3.48-.82,4.78,4.78,0,0,1,3,1.85,4.55,4.55,0,0,1,1.3,3.41,4.81,4.81,0,0,1-2,2.93l-10.87,8.74,2.26,2.81,11-8.87q5.67-4.69,1.31-10.12a7.82,7.82,0,0,0-6.87-3.12c1.1-2.26.72-4.53-1.13-6.84a7.79,7.79,0,0,0-6.06-3.17l1.77-1.55-2.14-2.66-16.48,13.24Z"/><path class="cls-1" d="M462.43,153.15l7.78-1.44,6,10.28-5.06,6.1,1.94,3.32,19.07-23.74-1.66-2.83-30,5Zm24.91-4.56-9,10.89-4.88-8.34Z"/><path class="cls-1" d="M487.42,186.29,486,183.2a4.15,4.15,0,0,1-3.34-.2,5.13,5.13,0,0,1-2.5-2.55,5.08,5.08,0,0,1-.06-4.73A9.16,9.16,0,0,1,484.5,172l.62-.3a9.28,9.28,0,0,1,5.83-1.08,5,5,0,0,1,3.61,3,4.83,4.83,0,0,1,.29,3.68,5,5,0,0,1-2.38,2.84l1.46,3.09a7.61,7.61,0,0,0,3.92-4.63,8.5,8.5,0,0,0-.6-6.25,9.16,9.16,0,0,0-3.35-4,8.53,8.53,0,0,0-4.76-1.34,12.7,12.7,0,0,0-5.45,1.32l-.54.26q-4.53,2.15-6,5.68a8.2,8.2,0,0,0-.37,5.53l-2.6.55a6.26,6.26,0,0,1,.56,2.55,1.4,1.4,0,0,1-.88,1.1,1.57,1.57,0,0,1-1.65-.15,4.72,4.72,0,0,1-1.49-2l-1.83,1a7.44,7.44,0,0,0,2.86,3.46,3.48,3.48,0,0,0,3.38.13q2.58-1.22,1.78-4.15l.81-.18a8.76,8.76,0,0,0,2.39,2.79,8.22,8.22,0,0,0,3.68,1.66A6.6,6.6,0,0,0,487.42,186.29Z"/><path class="cls-1" d="M515.09,194.14a2.32,2.32,0,0,1-1.64,0,1.75,1.75,0,0,1-1.12-1.07,3.11,3.11,0,0,1-.22-1.09,8.66,8.66,0,0,1,.18-1.61,8.69,8.69,0,0,0,.18-1.65,3.45,3.45,0,0,0-.25-1.22,3.78,3.78,0,0,0-2.35-2.32,5.08,5.08,0,0,0-3.65.13l.74,2.31a2.2,2.2,0,0,1,1.67,0,1.82,1.82,0,0,1,1.06,1.06,3.24,3.24,0,0,1,.22.95,6.6,6.6,0,0,1-.19,1.53,7.08,7.08,0,0,0-.21,1.72,4.51,4.51,0,0,0,.31,1.37,3.88,3.88,0,0,0,2.29,2.33,4.84,4.84,0,0,0,3.62-.09Z"/><path class="cls-1" d="M502.18,202.23a6.57,6.57,0,0,0,3.94-3.79,8.32,8.32,0,0,0-.33-6,10.35,10.35,0,0,0-2.31-3.65,7.72,7.72,0,0,0-3.26-2,5,5,0,0,0-3.26,0l1.29,3.4a2.89,2.89,0,0,1,2.68.38,5.21,5.21,0,0,1,2.06,2.68,4.53,4.53,0,0,1,.14,3.52,4,4,0,0,1-2.41,2.14l-1.56.59-1.25-3.29q-1.62-4.26-4.21-5.95a6,6,0,0,0-5.69-.52,5.73,5.73,0,0,0-3.48,3.46,7.45,7.45,0,0,0,.18,5.42,8,8,0,0,0,4.58,4.7,7.78,7.78,0,0,0-1.9,1.26l1.35,3.54L489,208a11.86,11.86,0,0,1,4.06-2.34Zm-12.38-1.51a6.31,6.31,0,0,1-2-2.7,4.35,4.35,0,0,1-.14-3.06,3.29,3.29,0,0,1,2.08-2q3.63-1.4,6,4.82l1,2.65-4,1.54A5.3,5.3,0,0,1,489.8,200.72Z"/><path class="cls-1" d="M510.53,210.22a9.15,9.15,0,0,0-4.62-2.2,12.47,12.47,0,0,0-5.71.38l-.24.07a11.42,11.42,0,0,0-6.86,4.76,8.86,8.86,0,0,0-.94,7.51,9.42,9.42,0,0,0,2.71,4.48,9,9,0,0,0,4.61,2.18,12.52,12.52,0,0,0,5.65-.4l.24-.07a11.51,11.51,0,0,0,6.9-4.77,8.89,8.89,0,0,0,.93-7.53A9.36,9.36,0,0,0,510.53,210.22Zm-1,10a9,9,0,0,1-4.95,3.15,9.88,9.88,0,0,1-6.26.12,5.52,5.52,0,0,1-2.45-8.39,9,9,0,0,1,5-3.13,9.82,9.82,0,0,1,6.31-.12,5.49,5.49,0,0,1,2.38,8.37Z"/><path class="cls-1" d="M471.1,344a.23.23,0,0,0-.07-.07c-.25-.29-.86-1-1.8-2l-.23-.24h0c-3.09-3.36-9.31-10-17.28-18-5-5-10.69-10.51-16.71-16.06-3-2.78-5.89-5.35-8.64-7.75-7.72-6.73-14.43-12-20.27-16.15h0c-12.42-8.8-21-12.47-27.14-13.91a31.06,31.06,0,0,0-7.11-.84,26.14,26.14,0,0,0-12.76,3.33h0c-5.91,3.27-12.1,9.43-17.45,20.52-4.46,9.27-8.14,21.36-10.93,35.94-1.24,6.52-6.72,11.43-12.73,11.43a6.84,6.84,0,0,1-6.83-6.82V269c0-3.35,0-6.47.08-9.23.18-14.22.29-22.8-5.82-29A16.81,16.81,0,0,0,293,225.87c-17,0-27.09,10.5-35.18,18.94-7.75,8.08-12.53,12.66-20.64,12.66h-.34c-8.11,0-12.89-4.58-20.64-12.66-8.09-8.44-18.16-18.94-35.18-18.94a16.81,16.81,0,0,0-12.36,4.91c-6.11,6.19-6,14.77-5.82,29,0,2.76.08,5.88.08,9.23v64.35a6.84,6.84,0,0,1-6.83,6.82c-6,0-11.49-4.91-12.73-11.43-2.79-14.58-6.47-26.67-10.93-35.94-5.35-11.09-11.54-17.25-17.45-20.52h0A26.14,26.14,0,0,0,102.25,269a31.06,31.06,0,0,0-7.11.84C89,271.23,80.42,274.9,68,283.7h0c-5.84,4.14-12.55,9.42-20.27,16.15-2.75,2.4-5.63,5-8.64,7.75-6,5.55-11.71,11.06-16.71,16.06-8,8-14.19,14.62-17.28,18h0l-.23.24c-.94,1-1.55,1.69-1.8,2L3,344l0,0a11.55,11.55,0,0,0,.86,16.3,11.87,11.87,0,0,0,2.69,1.81c.32.15.64.29,1,.41A12.79,12.79,0,0,0,9,363H9c.33.08.67.14,1,.19l.5.05h0c.35,0,.69.05,1,.05a11.51,11.51,0,0,0,1.18-.06,11.82,11.82,0,0,0,1.17-.18h0c.34-.07.69-.16,1-.26l.27-.09c.33-.11.65-.23,1-.37a10.88,10.88,0,0,0,1.08-.54l.52-.31a11.47,11.47,0,0,0,1-.72,11,11,0,0,0,1.37-1.29c.06-.08,3-3.33,7.79-8.37,5.58-5.86,13.68-14.15,22.77-22.71,1.32-1.25,2.67-2.51,4-3.76,5.12-4.71,9.74-8.74,13.89-12.19C79.86,303.05,87.71,298,93,295.23c5.61-2.9,8.35-3.2,9.24-3.2,2.71,0,7.09,4.38,11.41,15.24a145.07,145.07,0,0,1,7.07,25.8c3.34,17.49,18.23,30.18,35.4,30.18a29.94,29.94,0,0,0,29.9-29.9V269c0-3.49,0-6.7-.08-9.53,0-3.32-.09-6.89,0-9.7,4.42,1.58,8.26,5.39,13.65,11,8.44,8.8,18.95,19.76,37.29,19.76h.34c18.34,0,28.85-11,37.29-19.76,5.39-5.62,9.23-9.43,13.65-11,.08,2.81,0,6.38,0,9.7,0,2.83-.08,6-.08,9.53v64.35a29.94,29.94,0,0,0,29.9,29.9c17.17,0,32.06-12.69,35.4-30.18a145.07,145.07,0,0,1,7.07-25.8c4.32-10.86,8.7-15.24,11.41-15.24.89,0,3.63.3,9.24,3.2,5.3,2.74,13.16,7.82,24.41,17.17,4.12,3.42,8.69,7.42,13.77,12.08,1.4,1.29,2.79,2.58,4.15,3.87,9.07,8.55,17.19,16.85,22.77,22.71,4.8,5,7.73,8.29,7.79,8.37a11.53,11.53,0,0,0,8.59,3.82c.34,0,.68,0,1-.05h0A11.54,11.54,0,0,0,471.14,344Z"/></g></g></svg>