<svg xmlns="http://www.w3.org/2000/svg" viewBox="0 0 700.72 629.68"><g id="Layer_2" data-name="Layer 2"><g id="Layer_2-2" data-name="Layer 2"><path d="M696.34,174.58c-1-1.09-24.54-27.22-53.39-53.77C587.3,69.6,563,63.67,549.59,63.67c-12.62,0-30.61,6.12-44.66,35.26-6.6,13.69-12,31.56-16.15,53.11-1.84,9.63-9.93,16.89-18.83,16.89a10.09,10.09,0,0,1-10.08-10.08V63.75c0-5,.06-9.57.11-13.65.27-21,.43-33.7-8.6-42.85C448.12,3.94,442.3,0,433.11,0c-25.16,0-40,15.52-52,28-11.45,12-18.52,18.7-30.51,18.7h-.49c-12,0-19.05-6.75-30.51-18.7-12-12.47-26.84-28-52-28-9.18,0-15,3.94-18.27,7.25-9,9.15-8.86,21.83-8.59,42.85,0,4.08.11,8.7.11,13.65v95.1a10.1,10.1,0,0,1-10.09,10.08c-8.89,0-17-7.26-18.82-16.89-4.12-21.55-9.55-39.42-16.16-53.11-14.05-29.14-32-35.26-44.66-35.26-13.42,0-37.71,5.93-93.35,57.14-28.86,26.55-52.41,52.68-53.4,53.77a17.05,17.05,0,1,0,25.36,22.81c.23-.26,23.45-26,51.13-51.49,49.77-45.8,67.26-48.12,70.26-48.12,6.33,0,18.82,16.15,27.32,60.66,4.93,25.84,26.94,44.6,52.32,44.6A44.24,44.24,0,0,0,275,158.85V63.75c0-5.17-.06-9.91-.11-14.09-.07-4.91-.13-10.19,0-14.34,6.55,2.34,12.21,8,20.18,16.27,12.47,13,28,29.21,55.12,29.21h.49c27.12,0,42.65-16.19,55.13-29.21,8-8.3,13.63-13.93,20.17-16.27.11,4.15,0,9.43,0,14.34-.05,4.18-.12,8.92-.12,14.09v95.1A44.24,44.24,0,0,0,470,203c25.39,0,47.39-18.76,52.33-44.6,8.49-44.51,21-60.66,27.31-60.66,3,0,20.45,2.31,70.09,48,27.7,25.48,51.07,51.39,51.3,51.65a17.05,17.05,0,1,0,25.36-22.81Z"/><path d="M181.93,294h-6.18l-20.47,53.61h7.29l5-14h22.46l5.12,14h7.25Zm-12.18,33.8,9.09-25.07L188,327.84Z"/><path d="M229.45,341.26a11,11,0,0,1-6.21,1.57,10.61,10.61,0,0,1-6.75-2,7.08,7.08,0,0,1-2.75-5.43h-6.81A11.45,11.45,0,0,0,209,342a13.75,13.75,0,0,0,5.77,4.73,20,20,0,0,0,8.46,1.7q6.81,0,11.09-3.23a10.2,10.2,0,0,0,4.27-8.56,9.38,9.38,0,0,0-1.53-5.43,12.1,12.1,0,0,0-4.7-3.81,36.9,36.9,0,0,0-8.26-2.72,23.76,23.76,0,0,1-7.05-2.4,4.12,4.12,0,0,1-1.95-3.71,5.1,5.1,0,0,1,2.1-4.24,9.27,9.27,0,0,1,5.81-1.62,8.92,8.92,0,0,1,6,2,6.14,6.14,0,0,1,2.37,4.82h6.85a11.14,11.14,0,0,0-4.22-8.95q-4.22-3.49-11-3.49a16.21,16.21,0,0,0-10.58,3.38,10.34,10.34,0,0,0-4.14,8.29,8.82,8.82,0,0,0,1.45,5.08,11.74,11.74,0,0,0,4.49,3.68,34.55,34.55,0,0,0,8.21,2.65c3.45.74,5.87,1.61,7.26,2.63a5,5,0,0,1,2.08,4.29A4.8,4.8,0,0,1,229.45,341.26Z"/><path d="M268.33,341.26a11,11,0,0,1-6.21,1.57,10.61,10.61,0,0,1-6.75-2,7.08,7.08,0,0,1-2.75-5.43h-6.81a11.45,11.45,0,0,0,2.08,6.57,13.75,13.75,0,0,0,5.77,4.73,20,20,0,0,0,8.46,1.7q6.81,0,11.09-3.23a10.2,10.2,0,0,0,4.27-8.56,9.38,9.38,0,0,0-1.53-5.43,12.1,12.1,0,0,0-4.7-3.81,36.9,36.9,0,0,0-8.26-2.72,23.76,23.76,0,0,1-7.05-2.4,4.12,4.12,0,0,1-1.95-3.71,5.1,5.1,0,0,1,2.1-4.24,9.27,9.27,0,0,1,5.81-1.62,8.92,8.92,0,0,1,6,2,6.14,6.14,0,0,1,2.37,4.82h6.85a11.14,11.14,0,0,0-4.22-8.95q-4.22-3.49-11-3.49a16.21,16.21,0,0,0-10.58,3.38,10.34,10.34,0,0,0-4.14,8.29,8.82,8.82,0,0,0,1.45,5.08,11.74,11.74,0,0,0,4.49,3.68,34.55,34.55,0,0,0,8.21,2.65c3.45.74,5.87,1.61,7.26,2.63a5,5,0,0,1,2.08,4.29A4.8,4.8,0,0,1,268.33,341.26Z"/><path d="M318.58,338.61a23.67,23.67,0,0,0,2.23-10.44v-.48q0-9.35-5-15a16.79,16.79,0,0,0-13.17-5.63,17.39,17.39,0,0,0-9.37,2.54,17.17,17.17,0,0,0-6.4,7.21,23.47,23.47,0,0,0-2.3,10.53v.48q0,9.29,5,14.91a16.76,16.76,0,0,0,13.13,5.64,17.6,17.6,0,0,0,9.51-2.58A16.84,16.84,0,0,0,318.58,338.61Zm-15.88,4.22a9.83,9.83,0,0,1-8.23-4q-3.08-4-3.08-10.64,0-7.47,3.1-11.48a9.76,9.76,0,0,1,8.13-4,9.91,9.91,0,0,1,8.27,4.07Q314,320.8,314,327.36q0,7.33-3.06,11.4A9.77,9.77,0,0,1,302.7,342.83Z"/><path d="M337.25,316.41a9.53,9.53,0,0,1,8.05-3.74,9.08,9.08,0,0,1,6.49,2.49,9.36,9.36,0,0,1,2.93,6.35h6.44a14.3,14.3,0,0,0-4.73-10.42,16,16,0,0,0-11.13-4,17.4,17.4,0,0,0-9.45,2.5,16.26,16.26,0,0,0-6.13,7A24.05,24.05,0,0,0,327.59,327v1.14q0,9.42,4.8,14.85t12.94,5.44a16.73,16.73,0,0,0,7.68-1.85,15.46,15.46,0,0,0,5.8-4.93,12.37,12.37,0,0,0,2.35-6.52h-6.44a7.8,7.8,0,0,1-3,5.53,9.84,9.84,0,0,1-6.37,2.21,9.58,9.58,0,0,1-8.1-3.72q-2.84-3.72-2.83-10.61v-1.28Q334.4,320.14,337.25,316.41Z"/><rect x="369.41" y="307.81" width="6.81" height="39.84"/><path d="M375.89,294.45a3.86,3.86,0,0,0-3-1.14,3.82,3.82,0,0,0-3,1.14,4.08,4.08,0,0,0-1,2.8,4,4,0,0,0,1,2.76,3.9,3.9,0,0,0,3,1.1,4,4,0,0,0,3-1.1,3.89,3.89,0,0,0,1-2.76A4,4,0,0,0,375.89,294.45Z"/><path d="M404,323.5q-8.58,0-13.31,3.44A11.27,11.27,0,0,0,386,336.6a10.78,10.78,0,0,0,3.77,8.45,14.09,14.09,0,0,0,9.67,3.34,15.21,15.21,0,0,0,11.34-4.94,14.36,14.36,0,0,0,.95,4.2h7.15v-.59a22.29,22.29,0,0,1-1.4-8.73V320a12.41,12.41,0,0,0-4-9.48q-3.9-3.45-10.79-3.44a19.31,19.31,0,0,0-8,1.62,14.35,14.35,0,0,0-5.74,4.4,9.34,9.34,0,0,0-2.12,5.76h6.85a5.43,5.43,0,0,1,2.46-4.46,10,10,0,0,1,6.12-1.84q4.15,0,6.29,2.12a7.67,7.67,0,0,1,2.14,5.69v3.13Zm6.63,13a10,10,0,0,1-4.16,4.31,11.94,11.94,0,0,1-6.08,1.66,8.16,8.16,0,0,1-5.48-1.81,6.17,6.17,0,0,1-2.14-5q0-7.33,12.52-7.33h5.34Z"/><path d="M436,316.41a9.55,9.55,0,0,1,8.05-3.74,9.12,9.12,0,0,1,6.5,2.49,9.35,9.35,0,0,1,2.92,6.35H460a14.35,14.35,0,0,0-4.74-10.42,15.93,15.93,0,0,0-11.13-4,17.42,17.42,0,0,0-9.45,2.5,16.32,16.32,0,0,0-6.13,7A24.05,24.05,0,0,0,426.37,327v1.14q0,9.42,4.8,14.85a15.59,15.59,0,0,0,9.13,5.1l-1.16,4.86c2.41.23,4,.59,4.79,1.11a2.66,2.66,0,0,1,1.18,2.39,3,3,0,0,1-1.6,2.69,8.84,8.84,0,0,1-4.51,1l.25,3.94c3.51,0,6.25-.7,8.21-2.08a6.56,6.56,0,0,0,3-5.66q0-5.37-5.63-6.36l.35-1.54a16.65,16.65,0,0,0,6.66-1.82,15.46,15.46,0,0,0,5.8-4.93,12.39,12.39,0,0,0,2.36-6.52H453.5a7.76,7.76,0,0,1-3,5.53,9.82,9.82,0,0,1-6.37,2.21,9.58,9.58,0,0,1-8.1-3.72q-2.83-3.72-2.83-10.61v-1.28Q433.18,320.14,436,316.41Z"/><path d="M476.51,298.85a3.37,3.37,0,0,1,2.58-1.16,6.27,6.27,0,0,1,1.82.24,12.5,12.5,0,0,1,2.58,1.38,14.28,14.28,0,0,0,2.89,1.51,8.49,8.49,0,0,0,2.62.37,7.38,7.38,0,0,0,5.65-2.47,9.16,9.16,0,0,0,2.26-6.45l-4.56-.44a4.38,4.38,0,0,1-1.05,2.91,3.29,3.29,0,0,1-2.64,1.25,6.26,6.26,0,0,1-2.08-.33,16.07,16.07,0,0,1-2.7-1.4,16.47,16.47,0,0,0-2.8-1.43,6.76,6.76,0,0,0-2.32-.37,7.13,7.13,0,0,0-5.65,2.58,9.57,9.57,0,0,0-2.23,6.51l4.57.26A4.2,4.2,0,0,1,476.51,298.85Z"/><path d="M484.5,323.5q-8.58,0-13.31,3.44a11.27,11.27,0,0,0-4.73,9.66,10.76,10.76,0,0,0,3.78,8.45,14,14,0,0,0,9.66,3.34,15.21,15.21,0,0,0,11.34-4.94,14.28,14.28,0,0,0,1,4.2h7.14v-.59a22.48,22.48,0,0,1-1.4-8.73V320a12.41,12.41,0,0,0-4.05-9.48q-3.9-3.45-10.79-3.44a19.35,19.35,0,0,0-8,1.62,14.35,14.35,0,0,0-5.74,4.4,9.4,9.4,0,0,0-2.12,5.76h6.85a5.42,5.42,0,0,1,2.47-4.46,10,10,0,0,1,6.11-1.84q4.16,0,6.3,2.12a7.66,7.66,0,0,1,2.13,5.69v3.13Zm6.63,13A10,10,0,0,1,487,340.8a11.91,11.91,0,0,1-6.08,1.66,8.16,8.16,0,0,1-5.48-1.81,6.2,6.2,0,0,1-2.14-5q0-7.33,12.52-7.33h5.34Z"/><path d="M525,348.39a17.6,17.6,0,0,0,9.51-2.58,16.91,16.91,0,0,0,6.37-7.2,23.67,23.67,0,0,0,2.23-10.44v-.48q0-9.35-5-15a16.77,16.77,0,0,0-13.16-5.63,17.39,17.39,0,0,0-9.37,2.54,17.11,17.11,0,0,0-6.4,7.21,23.47,23.47,0,0,0-2.31,10.53v.48q0,9.29,5,14.91A16.76,16.76,0,0,0,525,348.39Zm-8.22-31.7a9.79,9.79,0,0,1,8.14-4,9.91,9.91,0,0,1,8.27,4.07q3.11,4.06,3.11,10.62,0,7.33-3.06,11.4a10.41,10.41,0,0,1-16.47.05q-3.07-4-3.08-10.64Q513.66,320.7,516.75,316.69Z"/><polygon points="146.89 448.12 126.44 390.39 105 390.39 105 469.99 121.41 469.99 121.41 448.23 119.77 410.73 141.2 469.99 152.46 469.99 173.95 410.67 172.31 448.23 172.31 469.99 188.77 469.99 188.77 390.39 167.22 390.39 146.89 448.12"/><path d="M199.59,439.87v.71q0,14.1,7.63,22.31t20.42,8.2q12.8,0,20.39-8.23t7.6-21.84l-.11-4q-.87-12.57-8.44-19.9t-19.55-7.33a28.54,28.54,0,0,0-14.79,3.77A24.8,24.8,0,0,0,203,424.18,35.06,35.06,0,0,0,199.59,439.87Zm19-12.87a10.34,10.34,0,0,1,9-4.52,10.51,10.51,0,0,1,9.08,4.54q3.22,4.56,3.22,12.82,0,9.69-3.22,14.1a11.39,11.39,0,0,1-18.05-.06q-3.17-4.45-3.17-12.89Q215.39,431.51,218.56,427Z"/><path d="M280.73,417.89l-.44-7.06H265.37V470h15.8V431.28q2.79-6.06,11.75-6.07a43.29,43.29,0,0,1,5.69.44l.22-15.2a16.67,16.67,0,0,0-4.92-.71Q285.48,409.74,280.73,417.89Z"/><path d="M342.43,468.32a21.57,21.57,0,0,0,8.83-7.76,20.3,20.3,0,0,0,3.28-11H339.72a8.41,8.41,0,0,1-2.84,6.4,10.33,10.33,0,0,1-7.11,2.41q-5.68,0-8.47-4c-1.86-2.66-2.79-7.05-2.79-13.14v-1.65q0-9,2.82-13.05t8.33-4a9.46,9.46,0,0,1,7.22,2.89,10.84,10.84,0,0,1,2.84,7.5h14.82q-.1-10.5-6.81-16.81t-17.79-6.32q-12.69,0-20,8.15t-7.27,21.81v1Q302.71,455,310,463t20,8.07A27.54,27.54,0,0,0,342.43,468.32Z"/><path d="M413.86,460.42l-7.76-8.69q-5.14,6.61-14.27,6.62a14,14,0,0,1-9.76-3.5,14.67,14.67,0,0,1-4.62-9.3h37.67V439.1q0-14.06-7-21.7T389,409.74a27.42,27.42,0,0,0-14.41,3.8,25.26,25.26,0,0,0-9.76,10.83,35.78,35.78,0,0,0-3.44,15.93v1.54q0,13.28,8.17,21.26t21.19,8a31.55,31.55,0,0,0,13.45-2.82A23.67,23.67,0,0,0,413.86,460.42Zm-32.5-34.75a9.85,9.85,0,0,1,7.62-3.19q5,0,7.77,2.88c1.82,1.93,2.77,4.64,2.84,8.16v1.26h-22Q378.44,428.86,381.36,425.67Z"/><path d="M472.34,481.53A25.31,25.31,0,0,0,475.86,468V410.83H461.54l-.66,5.58q-5.42-6.66-15.14-6.67-11,0-17.47,8.31T421.79,440v.65q0,13.78,6.59,22.12a20.93,20.93,0,0,0,17.25,8.34A18.28,18.28,0,0,0,460,464.91v3.17q0,6.18-3.5,9.54T446.72,481a18.49,18.49,0,0,1-14.32-6.61l-7,9.62a22.51,22.51,0,0,0,9.35,6.7,32.43,32.43,0,0,0,12.68,2.59,35,35,0,0,0,15-3A22.71,22.71,0,0,0,472.34,481.53ZM460,452.93q-3.12,5.42-10.34,5.42a10.26,10.26,0,0,1-8.85-4.58q-3.22-4.56-3.23-12.62,0-9.25,3.25-13.91a10.33,10.33,0,0,1,8.94-4.65q7.05,0,10.23,5.42Z"/><path d="M488.93,424.18a35.06,35.06,0,0,0-3.39,15.69v.71q0,14.1,7.63,22.31t20.42,8.2q12.79,0,20.39-8.23t7.6-21.84l-.11-4q-.87-12.57-8.45-19.9t-19.54-7.33a28.49,28.49,0,0,0-14.79,3.77A24.8,24.8,0,0,0,488.93,424.18ZM504.51,427a10.33,10.33,0,0,1,9-4.52,10.49,10.49,0,0,1,9.07,4.54q3.23,4.56,3.23,12.82,0,9.69-3.23,14.1a11.38,11.38,0,0,1-18-.06q-3.17-4.45-3.17-12.89Q501.34,431.51,504.51,427Z"/><path d="M586.2,437.08a67.49,67.49,0,0,0-10-2.65q-5.9-1.19-8.39-2.79a4.88,4.88,0,0,1-2.49-4.24,5.68,5.68,0,0,1,2.19-4.59,9.48,9.48,0,0,1,6.18-1.81q4.65,0,6.83,2.22a7.62,7.62,0,0,1,2.19,5.6h15.8A16.72,16.72,0,0,0,591.8,415q-6.75-5.3-18-5.3-10.54,0-17.08,5.28a16.24,16.24,0,0,0-6.53,13.15q0,13.5,21.1,17.93a32.74,32.74,0,0,1,9.21,3,5.08,5.08,0,0,1,2.87,4.57,5.37,5.37,0,0,1-2.32,4.51c-1.55,1.14-3.84,1.72-6.86,1.72a12.41,12.41,0,0,1-7.77-2.24,8.25,8.25,0,0,1-3.11-6.45h-15a16.86,16.86,0,0,0,3.28,10,22.05,22.05,0,0,0,9,7.27,31.29,31.29,0,0,0,13.21,2.66q11,0,17.93-5t7-13.09Q598.72,441.67,586.2,437.08Z"/><path d="M160.69,544.11a27.41,27.41,0,0,0-14.4,3.8,25.23,25.23,0,0,0-9.76,10.82,35.72,35.72,0,0,0-3.45,15.94v1.53q0,13.29,8.17,21.27t21.19,8a31.51,31.51,0,0,0,13.45-2.81,23.67,23.67,0,0,0,9.62-7.85l-7.76-8.69q-5.15,6.61-14.27,6.62a14,14,0,0,1-9.76-3.5,14.69,14.69,0,0,1-4.62-9.3h37.67v-6.45q0-14.06-7-21.71T160.69,544.11Zm10.55,25h-22q.83-5.92,3.75-9.12a9.88,9.88,0,0,1,7.63-3.18q5,0,7.76,2.88t2.84,8.16Z"/><path d="M261.51,544.11q-11.53,0-17.77,9-4.26-9-15.69-9-10.71,0-17,7.71l-.5-6.62H195.74v59.16h15.8V562.53q3-5.56,9.73-5.57,4.86,0,6.89,2.29c1.35,1.54,2,4,2,7.44v37.67H246l0-40.62q2.73-6.78,9.84-6.78,5,0,6.94,2.32c1.32,1.55,2,4,2,7.36v37.72h15.86V566.58q0-11.26-4.7-16.87T261.51,544.11Z"/><path d="M344.51,524.75l-29.64,79.61h17.44l5.47-16.4h28.76l5.52,16.4H389.5l-29.79-79.61Zm-2.3,49.92,9.9-29.8,10,29.8Z"/><path d="M412.06,560.87q2.81-4,8.34-4a9.48,9.48,0,0,1,7.21,2.88,10.93,10.93,0,0,1,2.85,7.51h14.81q-.11-10.5-6.81-16.82t-17.79-6.31q-12.69,0-20,8.15t-7.27,21.81v1q0,14.22,7.33,22.28a23.93,23.93,0,0,0,13.49,7.46l-1.52,7a18.13,18.13,0,0,1,5.93,1.12,3.16,3.16,0,0,1,1.83,3.15q0,4.43-6.12,4.42l.38,9.14q9.08,0,14.08-3.5a11,11,0,0,0,5-9.52q0-8-8.2-9.46l.42-2.2a26.38,26.38,0,0,0,7.1-2.31,21.64,21.64,0,0,0,8.83-7.76,20.24,20.24,0,0,0,3.28-11H430.46a8.47,8.47,0,0,1-2.85,6.4,10.38,10.38,0,0,1-7.11,2.41q-5.69,0-8.47-4t-2.79-13.14v-1.65Q409.24,564.9,412.06,560.87Z"/><path d="M502.19,565.05q0-9.94-6.43-15.45t-17.35-5.49a32.68,32.68,0,0,0-13,2.49,20.92,20.92,0,0,0-9,6.86,15.86,15.86,0,0,0-3.18,9.51h15.81a6.52,6.52,0,0,1,2.26-5.25,9.47,9.47,0,0,1,6.27-1.91q4.53,0,6.64,2.46a9.77,9.77,0,0,1,2.1,6.56v3.39h-7.27q-13.17.06-20.15,5.09t-7,14.43a16.17,16.17,0,0,0,5.72,12.68q5.7,5,14.4,5A19.13,19.13,0,0,0,487,599.06a17.58,17.58,0,0,0,1.58,5.3h16v-.93q-2.3-4.32-2.35-12.74Zm-15.86,22.58a10.23,10.23,0,0,1-4.37,4.18,13.6,13.6,0,0,1-6.45,1.56,8.11,8.11,0,0,1-5.69-1.91,6.36,6.36,0,0,1-2.08-4.87l.06-.93q.76-8.2,12.63-8.2h5.9Z"/><path d="M488.38,524.34a4.58,4.58,0,0,1-3.3,1.34,10.77,10.77,0,0,1-2.63-.32,30.87,30.87,0,0,1-4.54-1.92,33.69,33.69,0,0,0-4.73-2,11.31,11.31,0,0,0-11.86,3.85,15.54,15.54,0,0,0-3.58,10.34l9.18.54a5.33,5.33,0,0,1,1.34-3.88,4.41,4.41,0,0,1,3.26-1.37,9.9,9.9,0,0,1,2.73.36,23.91,23.91,0,0,1,4.1,1.88,24.2,24.2,0,0,0,4.46,2,13.28,13.28,0,0,0,3.69.47,11.21,11.21,0,0,0,8.8-4.19,15.28,15.28,0,0,0,3.61-10.36l-9.13-.6A5.08,5.08,0,0,1,488.38,524.34Z"/><path d="M559.35,551.44q-7.58-7.34-19.55-7.33A28.54,28.54,0,0,0,525,547.88a24.9,24.9,0,0,0-9.76,10.66,35.26,35.26,0,0,0-3.38,15.69V575q0,14.1,7.62,22.3t20.42,8.2q12.8,0,20.4-8.22t7.6-21.85l-.11-4Q566.92,558.76,559.35,551.44Zm-10.47,36.87a11.38,11.38,0,0,1-18-.06q-3.18-4.46-3.17-12.89,0-9.48,3.17-14a10.29,10.29,0,0,1,9-4.52,10.49,10.49,0,0,1,9.08,4.54q3.23,4.54,3.23,12.82Q552.11,583.9,548.88,588.31Z"/></g></g></svg>